<svg width="20544" height="14405" viewBox="0 0 20544 14405" fill="none" xmlns="http://www.w3.org/2000/svg">
<path d="M20544 0H0V14405H20544V0Z" fill="#FFFFFE"/>
<path fill-rule="evenodd" clip-rule="evenodd" d="M0 0.125H20544V2227.06C18230.1 3678.25 14645.6 4427.25 9790.5 4474.06C4935.38 4520.87 1671.88 3771.88 0 2227.06V0.125Z" fill="#1B46D5"/>
<path fill-rule="evenodd" clip-rule="evenodd" d="M2447.62 2628.31C2447.62 2628.31 -11.9476 3215.09 -1135.43 4384.52C-1516.74 4781.41 -1714.02 5161.81 -1808.22 5491.16C-2004.66 6177.92 -1399.45 6827.94 -701.601 6679.7C-366.95 6608.6 25.7552 6438.13 447.796 6084.94C1691.2 5044.32 2447.62 2628.31 2447.62 2628.31Z" fill="#CCD6F7"/>
<path fill-rule="evenodd" clip-rule="evenodd" d="M-645.219 5596.55C-563.721 5519.86 -482.198 5443.2 -400.651 5366.51C-9.59388 5504.8 381.439 5643.11 772.472 5781.4C781.388 5771.7 790.255 5761.92 799.073 5752.1C409.121 5614.18 19.1933 5476.29 -370.759 5338.37C-293.657 5265.85 -216.581 5193.36 -139.504 5120.85C236.619 5247.21 607.02 5390.02 970.469 5549.37C978.231 5539.61 985.968 5529.86 993.656 5520.04C632.393 5361.38 264.399 5218.75 -109.391 5092.51C-35.3105 5022.88 38.7204 4953.21 112.776 4883.56C463.698 5018.68 814.621 5153.79 1165.54 5288.91C1172.76 5278.69 1179.94 5268.45 1187.11 5258.18C838.839 5124.06 490.52 4989.97 142.226 4855.83C219.868 4782.82 297.485 4709.79 375.151 4636.76C713.227 4734.53 1047.13 4846.05 1376.09 4971.3C1382.63 4960.81 1389.16 4950.29 1395.64 4939.75C1070.36 4815.66 740.271 4704.95 406.026 4607.7C485.976 4532.49 565.927 4457.29 645.877 4382.08C948.314 4473.98 1246.5 4578.93 1539.9 4696.6C1545.97 4685.94 1552.01 4675.27 1558.03 4664.63C1268.71 4548.34 974.669 4444.47 676.531 4353.24C741.622 4292.01 806.761 4230.78 871.851 4169.53C1148.3 4241.42 1421.19 4325.99 1689.88 4422.79C1695.6 4411.91 1701.32 4401.04 1707 4390.15C1442.9 4294.78 1174.78 4211.33 903.217 4140.02C982.578 4065.36 1061.96 3990.7 1141.32 3916.04C1383.34 3954.95 1620.05 4019.88 1848.23 4109.18C1853.53 4098.2 1858.82 4087.26 1864.07 4076.32C1641.29 3988.82 1410.5 3924.85 1174.51 3884.85C1201.53 3859.42 1228.57 3833.99 1255.59 3808.56C1261.93 3807.08 1267.62 3802.71 1269.69 3795.33C1289.24 3776.91 1308.82 3758.51 1328.39 3740.1C1541.67 3760.64 1748.51 3819.23 1940.78 3913.34C1945.86 3902.28 1950.95 3891.27 1955.96 3880.26C1769.46 3789.2 1569.57 3730.74 1363.42 3707.16C1422.91 3651.19 1482.4 3595.22 1541.91 3539.27C1714.56 3569.88 1884.26 3613.17 2050.28 3668.82C2055.17 3657.56 2060.01 3646.35 2064.84 3635.19C1904.67 3581.32 1741.06 3539.02 1574.7 3508.41C1629.97 3456.41 1685.28 3404.39 1740.57 3352.37C1851.37 3390.61 1962.15 3428.86 2072.95 3467.1C2091.25 3473.42 2109.57 3479.89 2127.95 3486.19C2132.61 3474.95 2137.25 3463.79 2141.8 3452.71C2114.66 3443.4 2087.64 3433.55 2060.74 3424.26C1964.04 3390.86 1867.34 3357.48 1770.64 3324.1C1817.4 3280.12 1864.17 3236.1 1910.94 3192.13C2015.28 3208.94 2118.69 3230.32 2221.09 3256.1C2225.61 3244.6 2230.1 3233.16 2234.5 3221.88C2138.63 3197.66 2041.9 3177.24 1944.34 3160.7C1998.94 3109.34 2053.55 3058.01 2108.12 3006.63C2172.48 3019.28 2236.02 3034.95 2298.83 3053.52C2303.17 3041.89 2307.45 3030.44 2311.57 3019.18C2255.23 3002.49 2198.19 2988.09 2140.57 2976.14C2173.48 2945.16 2206.42 2914.17 2239.36 2883.19C2277.33 2890.4 2315.31 2897.6 2353.28 2904.81C2357.55 2892.94 2361.68 2881.36 2365.66 2870.15C2334.47 2864.22 2303.3 2858.32 2272.1 2852.4C2321.33 2806.1 2370.55 2759.81 2419.77 2713.52C2438.19 2658.51 2447.62 2628.31 2447.62 2628.31C2447.62 2628.31 2417.83 2635.45 2363.4 2649.67C2308.5 2701.3 2253.66 2752.9 2198.81 2804.52C2205 2766.95 2208.26 2729.24 2209.27 2691.52C2197.48 2694.83 2185.3 2698.26 2172.7 2701.84C2170.71 2750.48 2164.27 2799.09 2153.15 2847.43C2114.85 2883.46 2076.56 2919.5 2038.27 2955.53C2050.48 2882.47 2056.13 2809.07 2055.41 2735.84C2043.57 2739.34 2031.59 2742.9 2019.33 2746.58C2019.55 2824.05 2012.36 2901.7 1997.35 2978.78C1996.34 2983.87 1997.37 2988.32 1999.48 2991.97C1929.04 3058.24 1858.59 3124.5 1788.15 3190.77C1800.04 3064.41 1807.41 2937.8 1810.48 2811.04C1798.39 2814.89 1786.19 2818.79 1773.85 2822.77C1770.29 2958.19 1761.87 3093.44 1748.19 3228.37C1684.82 3287.98 1621.42 3347.6 1558.05 3407.23C1571.68 3233.31 1580.99 3059.13 1585.95 2884.82C1573.79 2888.94 1561.59 2893.09 1549.23 2897.31C1543.85 3079.82 1533.68 3262.17 1518.73 3444.21C1441.06 3517.27 1363.37 3590.35 1285.7 3663.41C1311.44 3433.74 1328.32 3203.24 1336.45 2972.34C1324.19 2976.78 1311.89 2981.28 1299.51 2985.8C1290.64 3225.19 1272.34 3464.09 1244.59 3702.07C1193.37 3750.24 1142.16 3798.41 1090.95 3846.58C1077.12 3591.29 1063.27 3335.97 1049.44 3080.66C1037.62 3085.3 1025.78 3089.96 1013.9 3094.65C1028.09 3356.14 1042.26 3617.61 1056.41 3879.08C957.107 3972.5 857.777 4065.93 758.471 4159.33C793.669 3833.23 811.109 3505.54 810.789 3177.56C798.68 3182.65 786.522 3187.76 774.363 3192.92C774.044 3528.65 755.131 3864.06 717.649 4197.75C626.694 4283.3 535.74 4368.85 444.785 4454.4C431.841 4089.01 418.921 3723.63 405.977 3358.24C394.089 3363.9 382.2 3369.58 370.288 3375.28C383.429 3746 396.545 4116.74 409.637 4487.46C374.979 4520.07 340.297 4552.69 305.639 4585.3C263.441 4624.98 221.268 4664.66 179.07 4704.33C156.742 4304.51 134.391 3904.68 112.064 3504.83C100.298 3511 88.5574 3517.2 76.8166 3523.42C99.414 3927.86 122.011 4332.31 144.609 4736.78C79.5184 4797.96 14.4773 4859.19 -50.5884 4920.37C-112.633 4513.68 -174.653 4106.94 -236.697 3700.22C-247.922 3706.99 -259.123 3713.75 -270.323 3720.57C-208.131 4128.32 -145.915 4536.07 -83.723 4943.82C-83.3792 4946.12 -82.6669 4948 -81.7826 4949.7C-174.776 5037.18 -267.744 5124.65 -360.737 5212.13C-415.831 4769.96 -470.9 4327.84 -525.968 3885.69C-537.218 3893.4 -548.418 3901.15 -559.57 3908.93C-504.181 4353.59 -448.793 4798.2 -393.405 5242.87C-463.089 5308.39 -532.748 5373.92 -602.431 5439.47C-702.621 5017.79 -802.835 4596.12 -903.025 4174.46C-913.415 4183.43 -923.756 4192.44 -933.998 4201.5C-833.661 4623.75 -733.324 5045.97 -633.011 5468.21C-707.189 5538.01 -781.368 5607.78 -855.571 5677.56C-995.65 5283.53 -1113.52 4882 -1209.05 4474.77C-1219.07 4485.95 -1228.94 4497.09 -1238.67 4508.22C-1142.66 4913.28 -1024.39 5312.64 -884.26 5704.54C-1004.59 5817.75 -1124.97 5930.97 -1245.33 6044.18C-1371.53 5691.73 -1481 5333.6 -1573.68 4970.96C-1582.59 4986.29 -1591.19 5001.52 -1599.61 5016.78C-1507.87 5370.93 -1400.04 5720.71 -1276.3 6065.09C-1275.56 6067.16 -1274.48 6068.92 -1273.28 6070.47C-1323.93 6118.12 -1374.57 6165.77 -1425.2 6213.38C-1538.16 5936.55 -1651.12 5659.76 -1764.06 5382.93C-1770.2 5400.66 -1776.09 5418.29 -1781.67 5435.74C-1672.27 5703.85 -1562.89 5971.93 -1453.52 6239.99C-1503.62 6287.15 -1553.76 6334.31 -1603.86 6381.44C-1585.24 6402.87 -1565.69 6423.46 -1545.28 6443.19C-1531.4 6430.13 -1517.53 6417.04 -1503.65 6404.01C-1262.13 6503.01 -1020.61 6602.02 -779.083 6701C-756.24 6698.16 -733.275 6694.48 -710.211 6689.91C-964.971 6585.5 -1219.76 6481.06 -1474.52 6376.62C-1429.74 6334.5 -1384.94 6292.36 -1340.11 6250.21C-1037.65 6371.14 -735.191 6492.05 -432.705 6613.01C-415.757 6607.06 -398.613 6600.76 -381.443 6594.27C-691.248 6470.4 -1001.08 6346.55 -1310.88 6222.68C-1241.4 6157.33 -1171.91 6091.95 -1102.42 6026.6C-761.767 6169.97 -421.063 6313.3 -80.3826 6456.64C-66.8978 6449.39 -53.3885 6441.9 -39.7809 6434.33C-384.342 6289.35 -728.903 6144.34 -1073.46 5999.36C-1012.84 5942.36 -952.224 5885.32 -891.628 5828.31C-889.933 5826.73 -888.263 5825.18 -886.617 5823.6C-516.438 5957.96 -153.578 6111.41 200.66 6283.52C212.008 6275.67 223.356 6267.67 234.728 6259.55C-120.91 6086.05 -485.269 5931.29 -856.873 5795.62C-849.062 5788.29 -841.275 5780.96 -833.465 5773.62C-831.475 5772.42 -829.78 5770.86 -828.552 5768.98C-777.782 5721.23 -727.011 5673.46 -676.216 5625.71C-269.611 5740.34 131.247 5874.41 525.08 6027.39C535.175 6018.33 545.245 6009.19 555.291 5999.96C161.729 5846.36 -238.883 5711.85 -645.219 5596.55Z" fill="#F8F9FB"/>
<path fill-rule="evenodd" clip-rule="evenodd" d="M17494.5 6701C17494.5 6701 19954.1 7287.78 21077.6 8457.21C21458.9 8854.1 21656.1 9234.49 21750.3 9563.85C21946.8 10250.6 21341.6 10900.6 20643.7 10752.4C20309.1 10681.3 19916.4 10510.8 19494.3 10157.6C18250.9 9117.01 17494.5 6701 17494.5 6701Z" fill="#CCD6F7"/>
<path fill-rule="evenodd" clip-rule="evenodd" d="M20587.3 9669.24C20505.8 9592.55 20424.3 9515.89 20342.8 9439.2C19951.7 9577.49 19560.7 9715.8 19169.7 9854.09C19160.7 9844.39 19151.9 9834.61 19143.1 9824.78C19533 9686.87 19922.9 9548.97 20312.9 9411.06C20235.8 9338.54 20158.7 9266.05 20081.6 9193.54C19705.5 9319.9 19335.1 9462.71 18971.7 9622.05C18963.9 9612.3 18956.2 9602.55 18948.5 9592.72C19309.7 9434.07 19677.7 9291.43 20051.5 9165.19C19977.4 9095.57 19903.4 9025.89 19829.3 8956.24C19478.4 9091.37 19127.5 9226.47 18776.6 9361.6C18769.4 9351.38 18762.2 9341.13 18755 9330.86C19103.3 9196.75 19451.6 9062.66 19799.9 8928.52C19722.3 8855.51 19644.6 8782.48 19567 8709.44C19228.9 8807.22 18895 8918.74 18566 9043.99C18559.5 9033.5 18553 9022.98 18546.5 9012.44C18871.8 8888.35 19201.9 8777.64 19536.1 8680.38C19456.1 8605.18 19376.2 8529.97 19296.2 8454.77C18993.8 8546.66 18695.6 8651.62 18402.2 8769.29C18396.2 8758.63 18390.1 8747.96 18384.1 8737.32C18673.4 8621.03 18967.5 8517.16 19265.6 8425.93C19200.5 8364.7 19135.4 8303.47 19070.3 8242.21C18793.8 8314.11 18520.9 8398.67 18252.2 8495.48C18246.5 8484.59 18240.8 8473.73 18235.1 8462.84C18499.2 8367.47 18767.3 8284.01 19038.9 8212.71C18959.5 8138.05 18880.2 8063.39 18800.8 7988.72C18558.8 8027.63 18322.1 8092.57 18093.9 8181.87C18088.6 8170.88 18083.3 8159.95 18078.1 8149.01C18300.8 8061.51 18531.6 7997.54 18767.6 7957.54C18740.6 7932.11 18713.6 7906.68 18686.5 7881.25C18680.2 7879.77 18674.5 7875.4 18672.4 7868.01C18652.9 7849.6 18633.3 7831.2 18613.7 7812.78C18400.5 7833.33 18193.6 7891.91 18001.3 7986.03C17996.3 7974.97 17991.2 7963.96 17986.2 7952.95C18172.7 7861.89 18372.6 7803.43 18578.7 7779.85C18519.2 7723.88 18459.7 7667.9 18400.2 7611.96C18227.6 7642.57 18057.9 7685.85 17891.8 7741.5C17887 7730.25 17882.1 7719.04 17877.3 7707.88C18037.5 7654 18201.1 7611.71 18367.4 7581.09C18312.2 7529.1 18256.8 7477.08 18201.6 7425.05C18090.8 7463.3 17980 7501.54 17869.2 7539.79C17850.9 7546.11 17832.6 7552.58 17814.2 7558.87C17809.5 7547.64 17804.9 7536.48 17800.3 7525.39C17827.5 7516.09 17854.5 7506.23 17881.4 7496.95C17978.1 7463.55 18074.8 7430.17 18171.5 7396.78C18124.7 7352.81 18078 7308.79 18031.2 7264.82C17926.8 7281.63 17823.4 7303.01 17721 7328.79C17716.5 7317.28 17712 7305.85 17707.6 7294.57C17803.5 7270.35 17900.2 7249.93 17997.8 7233.39C17943.2 7182.03 17888.6 7130.7 17834 7079.32C17769.6 7091.96 17706.1 7107.64 17643.3 7126.21C17639 7114.58 17634.7 7103.12 17630.6 7091.86C17686.9 7075.17 17743.9 7060.78 17801.6 7048.83C17768.6 7017.84 17735.7 6986.86 17702.8 6955.87C17664.8 6963.08 17626.8 6970.29 17588.8 6977.5C17584.6 6965.63 17580.4 6954.05 17576.5 6942.84C17607.7 6936.91 17638.8 6931.01 17670 6925.08C17620.8 6878.79 17571.6 6832.5 17522.4 6786.2C17503.9 6731.2 17494.5 6701 17494.5 6701C17494.5 6701 17524.3 6708.14 17578.7 6722.36C17633.6 6773.98 17688.5 6825.58 17743.3 6877.21C17737.1 6839.63 17733.9 6801.93 17732.9 6764.21C17744.6 6767.51 17756.8 6770.95 17769.4 6774.53C17771.4 6823.17 17777.9 6871.78 17789 6920.12C17827.3 6956.14 17865.6 6992.19 17903.9 7028.21C17891.6 6955.16 17886 6881.75 17886.7 6808.52C17898.6 6812.03 17910.5 6815.59 17922.8 6819.26C17922.6 6896.74 17929.8 6974.39 17944.8 7051.47C17945.8 7056.56 17944.8 7061 17942.6 7064.66C18013.1 7130.92 18083.5 7197.19 18154 7263.46C18142.1 7137.1 18134.7 7010.49 18131.6 6883.73C18143.7 6887.58 18155.9 6891.48 18168.3 6895.46C18171.8 7030.88 18180.3 7166.13 18193.9 7301.06C18257.3 7360.66 18320.7 7420.29 18384.1 7479.92C18370.4 7306 18361.1 7131.81 18356.2 6957.5C18368.3 6961.63 18380.5 6965.77 18392.9 6970C18398.3 7152.5 18408.4 7334.86 18423.4 7516.9C18501.1 7589.96 18578.8 7663.04 18656.4 7736.1C18630.7 7506.43 18613.8 7275.93 18605.7 7045.03C18617.9 7049.47 18630.2 7053.97 18642.6 7058.48C18651.5 7297.88 18669.8 7536.78 18697.5 7774.76C18748.8 7822.93 18800 7871.1 18851.2 7919.27C18865 7663.98 18878.9 7408.66 18892.7 7153.34C18904.5 7157.98 18916.3 7162.65 18928.2 7167.34C18914 7428.83 18899.9 7690.3 18885.7 7951.76C18985 8045.19 19084.3 8138.62 19183.7 8232.02C19148.5 7905.91 19131 7578.23 19131.3 7250.25C19143.4 7255.34 19155.6 7260.45 19167.8 7265.61C19168.1 7601.34 19187 7936.75 19224.5 8270.43C19315.4 8355.98 19406.4 8441.53 19497.3 8527.09C19510.3 8161.7 19523.2 7796.32 19536.1 7430.93C19548 7436.58 19559.9 7442.26 19571.8 7447.97C19558.7 7818.68 19545.6 8189.43 19532.5 8560.14C19567.1 8592.76 19601.8 8625.38 19636.5 8657.99C19678.7 8697.67 19720.9 8737.34 19763.1 8777.02C19785.4 8377.19 19807.7 7977.37 19830.1 7577.51C19841.8 7583.69 19853.6 7589.88 19865.3 7596.11C19842.7 8000.55 19820.1 8404.99 19797.5 8809.46C19862.6 8870.64 19927.6 8931.88 19992.7 8993.06C20054.8 8586.37 20116.8 8179.63 20178.8 7772.91C20190 7779.67 20201.2 7786.44 20212.4 7793.25C20150.3 8201.01 20088 8608.76 20025.8 9016.51C20025.5 9018.81 20024.8 9020.68 20023.9 9022.39C20116.9 9109.86 20209.9 9197.34 20302.9 9284.82C20358 8842.65 20413 8400.52 20468.1 7958.38C20479.3 7966.08 20490.5 7973.84 20501.7 7981.61C20446.3 8426.28 20390.9 8870.89 20335.5 9315.55C20405.2 9381.08 20474.9 9446.61 20544.6 9512.16C20644.7 9090.48 20745 8668.8 20845.1 8247.15C20855.5 8256.11 20865.9 8265.13 20876.1 8274.19C20775.8 8696.43 20675.4 9118.65 20575.1 9540.9C20649.3 9610.7 20723.5 9680.47 20797.7 9750.24C20937.8 9356.22 21055.6 8954.69 21151.2 8547.45C21161.2 8558.64 21171.1 8569.77 21180.8 8580.91C21084.8 8985.97 20966.5 9385.33 20826.4 9777.23C20946.7 9890.43 21067.1 10003.7 21187.4 10116.9C21313.7 9764.42 21423.1 9406.29 21515.8 9043.65C21524.7 9058.98 21533.3 9074.21 21541.7 9089.47C21450 9443.62 21342.2 9793.4 21218.4 10137.8C21217.7 10139.9 21216.6 10141.6 21215.4 10143.2C21266 10190.8 21316.7 10238.5 21367.3 10286.1C21480.3 10009.2 21593.2 9732.44 21706.2 9455.62C21712.3 9473.35 21718.2 9490.98 21723.8 9508.43C21614.4 9776.54 21505 10044.6 21395.6 10312.7C21445.7 10359.8 21495.9 10407 21546 10454.1C21527.4 10475.6 21507.8 10496.1 21487.4 10515.9C21473.5 10502.8 21459.6 10489.7 21445.8 10476.7C21204.3 10575.7 20962.7 10674.7 20721.2 10773.7C20698.4 10770.8 20675.4 10767.2 20652.3 10762.6C20907.1 10658.2 21161.9 10553.8 21416.6 10449.3C21371.9 10407.2 21327.1 10365 21282.2 10322.9C20979.8 10443.8 20677.3 10564.7 20374.8 10685.7C20357.9 10679.7 20340.7 10673.4 20323.6 10667C20633.4 10543.1 20943.2 10419.2 21253 10295.4C21183.5 10230 21114 10164.6 21044.5 10099.3C20703.9 10242.7 20363.2 10386 20022.5 10529.3C20009 10522.1 19995.5 10514.6 19981.9 10507C20326.5 10362 20671 10217 21015.6 10072.1C20955 10015 20894.3 9958.01 20833.8 9901C20832.1 9899.42 20830.4 9897.86 20828.7 9896.28C20458.6 10030.6 20095.7 10184.1 19741.5 10356.2C19730.1 10348.4 19718.8 10340.4 19707.4 10332.2C20063 10158.7 20427.4 10004 20799 9868.31C20791.2 9860.98 20783.4 9853.65 20775.6 9846.31C20773.6 9845.1 20771.9 9843.55 20770.7 9841.67C20719.9 9793.92 20669.1 9746.15 20618.3 9698.4C20211.7 9813.03 19810.9 9947.1 19417 10100.1C19406.9 10091 19396.9 10081.9 19386.8 10072.6C19780.4 9919.05 20181 9784.54 20587.3 9669.24Z" fill="#F8F9FB"/>
</svg>
