<?xml version="1.0" encoding="UTF-8"?>
<svg width="220px" height="197px" viewBox="0 0 220 197" version="1.1" xmlns="http://www.w3.org/2000/svg" xmlns:xlink="http://www.w3.org/1999/xlink">
    <!-- Generator: Sketch 55.2 (78181) - https://sketchapp.com -->
    <title>illustration</title>
    <desc>Created with Sketch.</desc>
    <defs>
        <path d="M105.629077,125.012836 C105.629077,125.012836 93.4432073,100.562464 92.065295,96.9480153 C90.6880484,93.3339 86.3006959,92.9085136 86.3006959,92.9085136 L86.3006959,6.29395763 C86.3006959,3.38770678 83.9522542,1.03172034 81.053646,1.03172034 L6.00768533,1.03172034 C3.10940998,1.03172034 0.76096823,3.38770678 0.76096823,6.29395763 L0.76096823,169.513132 C0.76096823,172.420719 3.10940998,174.776705 6.00768533,174.776705 L81.053646,174.776705 C83.9522542,174.776705 86.3006959,172.420719 86.3006959,169.513132 L86.3006959,171.149902 C86.3006959,171.149902 87.2968533,174.551324 91.7474433,174.776705 C96.1980333,175.001753 95.6681694,173.275832 98.5295008,170.461737 C101.390499,167.647976 102.132042,163.070231 102.556067,157.010978 C102.979758,150.951725 99.483056,129.690417 99.483056,129.690417 L104.781362,128.414925 L105.629077,125.012836" id="path-1"></path>
    </defs>
    <g id="Web-Wireframe-" stroke="none" stroke-width="1" fill="none" fill-rule="evenodd">
        <g id="Chat-Empty" transform="translate(-402.000000, -228.000000)">
            <g id="chat" transform="translate(172.000000, 99.000000)">
                <g id="illustration" transform="translate(230.000000, 129.000000)">
                    <path d="M125.040545,190.835569 C125.040545,190.835569 156.660303,95.5740492 181.101271,84.6702661 C205.542905,73.7661492 217.033828,87.3942085 204.491165,119.536595 C191.948835,151.678647 141.584478,193.208919 141.584478,193.208919 L125.040545,190.835569" id="Fill-185" fill="#CCD6F7"></path>
                    <path d="M194.360514,123.011141 L174.564508,128.024624 C177.550651,122.865561 180.48354,117.790641 183.214735,113.060637 L203.885083,106.573327 L184.061452,111.593822 C192.201452,97.4926288 198.344145,86.8088847 198.344145,86.8088847 C194.131528,91.2170102 188.620877,99.0556068 182.706838,108.363356 L177.77298,89.9572119 L181.891407,109.652871 C178.964841,114.296729 175.951407,119.271814 172.955613,124.35241 L168.122269,106.321234 L172.171467,125.684998 C169.177337,130.785629 166.212496,135.966729 163.380787,140.998242 L158.471558,122.684922 L162.593979,142.398946 C159.478699,147.952008 156.540484,153.294047 153.928109,158.101515 L148.820847,139.04861 L153.117337,159.59571 C146.882784,171.101178 142.688139,179.207895 142.688139,179.207895 C142.688139,179.207895 143.180393,179.949149 144.412194,179.207895 C144.743691,179.008224 148.807534,172.215731 154.568472,162.397451 L175.311044,155.887436 L155.487746,160.907931 L155.396218,160.986063 C158.060514,156.439369 161.049985,151.313363 164.178245,145.932925 L184.835946,139.449288 L165.031619,144.464775 C167.872648,139.576503 170.812526,134.505924 173.716127,129.490771 L194.360514,123.011141" id="Fill-186" fill="#FFFFFE"></path>
                    <path d="M86.0712557,195.112473 L86.054947,195.104459 C85.6771861,194.915473 78.892466,191.457288 71.8275038,184.493505 C68.2945234,181.011947 64.691649,176.655242 61.7760666,171.396678 C58.8604841,166.137112 56.6308623,159.977356 55.8380635,152.871666 C54.2062027,138.24692 52.7038124,130.259405 50.2442057,123.711993 C49.0150681,120.440792 47.549289,117.541553 45.7270499,114.377532 C43.9044781,111.212844 41.7251135,107.781037 39.0518306,103.421995 C33.6243873,94.5753593 25.7183661,88.5878949 19.1776097,84.8024898 C12.6348563,81.0180864 7.44738275,79.4344068 7.41742814,79.4247237 L7.06928896,80.5733339 L7.0812708,80.5773407 C7.36417549,80.664822 12.5123752,82.2895712 18.8820575,86.0185475 C25.2537368,89.7471898 32.8382451,95.5783898 38.032708,104.051059 C40.7113162,108.418449 42.8880182,111.847251 44.6909531,114.978215 C47.3955219,119.676832 49.2606959,123.693629 50.771407,129.287093 C52.2807867,134.880224 53.4280484,142.058369 54.6488654,153.005225 C55.4732829,160.398402 57.8203933,166.801236 60.8727685,172.235764 C65.4524962,180.388559 71.6121634,186.367676 76.6265658,190.314354 C81.6419667,194.260698 85.5154312,196.175939 85.5423903,196.189629 L86.0712557,195.112473" id="Fill-208" fill="#CCD6F7"></path>
                    <path d="M71.4900151,184.999695 C71.4900151,184.999695 66.6363691,178.867653 68.967171,169.243702 C71.2979728,159.619751 74.2272012,141.8006 74.2272012,141.8006 C74.2272012,141.8006 78.6052345,141.794256 77.2502874,153.048298 C75.8956732,164.302341 69.3475946,181.225976 71.4900151,184.999695" id="Fill-209" fill="#CCD6F7"></path>
                    <path d="M66.0828744,178.956803 C66.0828744,178.956803 55.8829955,173.764351 46.31882,176.363749 C36.7546445,178.963147 33.3344932,177.197827 33.3344932,177.197827 C33.3344932,177.197827 36.5868986,181.548188 44.3141906,181.433661 C52.0411498,181.319468 63.0225113,177.856608 66.0828744,178.956803" id="Fill-210" fill="#CCD6F7"></path>
                    <path d="M60.1029349,169.487781 C60.1029349,169.487781 63.6478971,167.170861 65.6452042,153.911425 C67.6421785,140.65199 70.0095915,137.215508 70.0095915,137.215508 C70.0095915,137.215508 67.8708321,135.918981 64.4909531,141.579225 C61.1104085,147.238802 58.4321331,162.840534 60.1029349,169.487781" id="Fill-211" fill="#CCD6F7"></path>
                    <path d="M61.5164599,172.090853 C61.5164599,172.090853 56.750348,166.236614 46.6413313,168.445351 C36.5326475,170.654088 26.6346445,160.657173 26.6346445,160.657173 C26.6346445,160.657173 36.1958245,164.477971 41.8652345,162.359053 C47.5349773,160.240134 59.7474735,168.765225 61.5164599,172.090853" id="Fill-212" fill="#CCD6F7"></path>
                    <path d="M56.5230257,159.889207 C56.5230257,159.889207 40.9000303,158.14559 35.3707413,150.920031 C29.8414523,143.694805 25.24941,143.58128 25.24941,143.58128 C25.24941,143.58128 35.2146445,141.444331 41.0557943,147.388722 C46.896944,153.333114 53.2732829,159.539949 56.5230257,159.889207" id="Fill-213" fill="#CCD6F7"></path>
                    <path d="M55.3042057,153.45532 C55.3534644,153.973197 61.2595159,147.893242 62.4377307,137.574115 C63.6159455,127.255322 65.8785174,124.411176 65.8785174,124.411176 C65.8785174,124.411176 64.1491377,122.957383 60.5396067,126.398205 C56.9300756,129.839027 54.7087746,147.147647 55.3042057,153.45532" id="Fill-214" fill="#CCD6F7"></path>
                    <path d="M54.4115582,145.988019 C54.4115582,145.988019 42.4373676,142.559217 39.3344024,136.752392 C36.2314372,130.945566 31.8011498,130.168585 31.8011498,130.168585 C31.8011498,130.168585 35.8283812,127.962853 40.491649,131.577636 C45.1552496,135.192419 51.8783964,145.757963 54.4115582,145.988019" id="Fill-215" fill="#CCD6F7"></path>
                    <path d="M52.1855976,131.66278 C52.1855976,131.66278 41.6069592,129.996961 37.2984871,124.924712 C32.990348,119.852129 30.060121,119.237088 30.060121,119.237088 C30.060121,119.237088 31.9396067,117.844064 36.8115582,119.758971 C41.683177,121.673544 49.2557035,131.048073 52.1855976,131.66278" id="Fill-216" fill="#CCD6F7"></path>
                    <path d="M51.6340998,130.225681 C51.6340998,130.225681 55.9588805,129.188927 57.507534,120.299886 C59.0561876,111.410512 63.371649,104.229027 63.371649,104.229027 C63.371649,104.229027 59.033888,102.651024 55.8487141,108.564697 C52.6635401,114.478036 51.6340998,130.225681 51.6340998,130.225681" id="Fill-217" fill="#CCD6F7"></path>
                    <path d="M46.9259002,117.79832 C46.9259002,117.79832 41.6974887,117.351898 36.9846293,113.51908 C32.2721029,109.686261 26.9438427,108.380385 26.5560968,108.285558 C26.1686838,108.190731 27.8930711,105.42071 32.9477458,107.380359 C38.0024206,109.340008 46.9259002,117.79832 46.9259002,117.79832" id="Fill-218" fill="#CCD6F7"></path>
                    <path d="M44.1754009,112.916059 C44.1754009,112.916059 49.353888,111.195481 50.5683812,102.84168 C51.7822088,94.4882119 53.8487443,93.9649932 53.8487443,93.9649932 C53.8487443,93.9649932 47.0011195,95.1520017 45.5489864,99.8516203 C44.0961876,104.551239 44.1754009,112.916059 44.1754009,112.916059" id="Fill-219" fill="#CCD6F7"></path>
                    <path d="M38.8468079,104.232032 C38.8468079,104.232032 36.389531,106.267142 30.6931619,103.944212 C24.9967927,101.620947 21.8322542,101.969871 21.8322542,101.969871 C21.8322542,101.969871 23.6298638,100.255971 28.3510439,100.589202 C33.0715582,100.922098 38.8468079,104.232032 38.8468079,104.232032" id="Fill-220" fill="#CCD6F7"></path>
                    <path d="M35.8849622,99.8719881 C35.8849622,99.8719881 38.8794251,96.8872712 36.6438124,90.469078 C34.4085325,84.0508847 36.2534039,85.3270441 36.2534039,85.3270441 C36.2534039,85.3270441 34.5483207,83.0552 33.5325265,87.6469695 C32.5170651,92.2384051 35.8849622,99.8719881 35.8849622,99.8719881" id="Fill-221" fill="#CCD6F7"></path>
                    <path d="M30.9700756,94.3643356 C30.9700756,94.3643356 26.5261422,92.8113746 22.8796672,94.2955525 C19.2331921,95.7800644 14.7702874,93.450122 14.7702874,93.450122 C14.7702874,93.450122 19.0541301,93.985361 20.522239,92.5943407 C21.9900151,91.2033203 30.9700756,94.3643356 30.9700756,94.3643356" id="Fill-222" fill="#CCD6F7"></path>
                    <path d="M24.9249017,89.2697153 C24.9249017,89.2697153 20.4609985,85.6789729 20.9728896,81.8908966 C21.4847806,78.1028203 25.412829,75.4610169 25.412829,75.4610169 C25.412829,75.4610169 22.5019062,80.1028712 23.5503177,83.0375034 C24.5983964,85.9721356 24.9249017,89.2697153 24.9249017,89.2697153" id="Fill-223" fill="#CCD6F7"></path>
                    <path d="M19.07177,85.4352271 C19.07177,85.4352271 18.6690469,87.5571508 15.4609077,88.0840424 C12.2531014,88.6106 10.1449622,91.2607508 10.1449622,91.2607508 C10.1449622,91.2607508 10.5593343,87.3457932 12.5869289,86.6068763 C14.6145234,85.8682932 18.5478971,86.4846695 19.07177,85.4352271" id="Fill-224" fill="#CCD6F7"></path>
                    <path d="M14.5645991,83.0251492 C15.0808169,83.4699017 12.7590015,81.4741915 14.1405749,78.645739 C15.5224811,75.8176203 19.5746747,73.7210729 19.5746747,73.7210729 C19.5746747,73.7210729 16.1525265,73.5774966 13.8743116,75.6453288 C11.5960968,77.713161 11.9781846,80.796378 14.5645991,83.0251492" id="Fill-225" fill="#CCD6F7"></path>
                    <path d="M11.1870499,81.4865458 C11.1870499,81.4865458 9.17509834,86.3888407 6.45821483,87.1134 C6.45821483,87.1134 6.5920121,84.9834627 7.78154312,83.5754136 C8.97140696,82.1676983 11.1870499,81.4865458 11.1870499,81.4865458" id="Fill-226" fill="#CCD6F7"></path>
                    <path d="M7.7206354,80.1182305 C7.63609682,79.4450915 7.39046899,77.6356966 6.31742814,76.3411729 C5.24405446,75.0466492 6.18762481,72.7096949 6.18762481,72.7096949 C6.18762481,72.7096949 9.01034796,75.6383169 8.71113464,77.4066424 C8.41192133,79.1746339 7.7206354,80.1182305 7.7206354,80.1182305" id="Fill-227" fill="#CCD6F7"></path>
                    <path d="M7.69034796,79.9516153 C7.01770045,80.0227356 5.20944024,80.2327576 3.89776097,81.2828678 C2.58574887,82.332978 0.27591528,81.3392966 0.27591528,81.3392966 C0.27591528,81.3392966 3.25207262,78.5672729 5.00774584,78.9031746 C6.76375189,79.2390763 7.69034796,79.9516153 7.69034796,79.9516153" id="Fill-228" fill="#CCD6F7"></path>
                    <path d="M152.955582,63.7111356 L152.955582,75.0172661 C152.955582,75.4767102 152.580484,75.8530136 152.12118,75.8530136 C151.663207,75.8530136 151.288109,75.4767102 151.288109,75.0172661 L151.288109,63.7111356 C151.288109,63.2503559 151.663207,62.8743864 152.12118,62.8743864 C152.350499,62.8743864 152.558517,62.9682119 152.709955,63.1204695 C152.861392,63.2723932 152.955582,63.4807458 152.955582,63.7111356" id="Fill-259" fill="#4D504E"></path>
                    <path d="M152.12118,75.8530136 L152.12118,185.829766 C152.12118,191.94311 147.180333,196.900832 141.085234,196.900832 L68.4639334,196.900832 C62.3691679,196.900832 57.4269894,191.94311 57.4269894,185.829766 L57.4269894,63.1561966 L57.4972163,63.1595356 C57.9551891,63.1595356 58.3299546,62.7832322 58.3299546,62.324122 L58.3299546,37.6617254 C58.3299546,37.4310017 58.2364297,37.2226492 58.0849924,37.072061 C57.9345537,36.9201373 57.7268684,36.825978 57.4972163,36.825978 L57.4269894,36.8289831 L57.4269894,11.232339 C57.4269894,5.11765932 62.3691679,0.161272881 68.4639334,0.161272881 L141.085234,0.161272881 C147.180333,0.161272881 152.12118,5.11765932 152.12118,11.232339 L152.12118,62.8743864 C151.663207,62.8743864 151.288109,63.2503559 151.288109,63.7111356 L151.288109,75.0172661 C151.288109,75.4767102 151.663207,75.8530136 152.12118,75.8530136 Z M147.544781,180.533471 L147.544781,17.3142966 C147.544781,14.4080458 145.196006,12.0520593 142.297731,12.0520593 L67.2514372,12.0520593 C64.3534947,12.0520593 62.005053,14.4080458 62.005053,17.3142966 L62.005053,180.533471 C62.005053,183.441058 64.3534947,185.797044 67.2514372,185.797044 L142.297731,185.797044 C145.196006,185.797044 147.544781,183.441058 147.544781,180.533471 Z M130.318548,7.35744915 C130.318548,6.10199153 129.304418,5.08460339 128.05298,5.08460339 C126.801543,5.08460339 125.787413,6.10199153 125.787413,7.35744915 C125.787413,8.61290678 126.801543,9.63029492 128.05298,9.63029492 C129.304418,9.63029492 130.318548,8.61290678 130.318548,7.35744915 Z M121.60941,7.35744915 C121.60941,6.10199153 120.59528,5.08460339 119.343843,5.08460339 C118.092405,5.08460339 117.078275,6.10199153 117.078275,7.35744915 C117.078275,8.61290678 118.092405,9.63029492 119.343843,9.63029492 C120.59528,9.63029492 121.60941,8.61290678 121.60941,7.35744915 Z M110.906626,7.12238475 C110.906626,6.51903051 110.414372,6.02519492 109.81295,6.02519492 L98.7194251,6.02519492 C98.4195461,6.02519492 98.1446293,6.14907119 97.9475946,6.34807458 C97.7488956,6.54574237 97.6257489,6.82154237 97.6257489,7.12238475 C97.6257489,7.72607288 98.118003,8.21957458 98.7194251,8.21957458 L109.81295,8.21957458 C110.112829,8.21957458 110.387746,8.09569831 110.584781,7.89669492 C110.783147,7.69936102 110.906626,7.42322712 110.906626,7.12238475 L110.906626,7.12238475 Z" id="Fill-260" fill="#4D504E"></path>
                    <path d="M147.544781,17.3142966 L147.544781,180.533471 C147.544781,183.441058 145.196006,185.797044 142.297731,185.797044 L67.2514372,185.797044 C64.3534947,185.797044 62.005053,183.441058 62.005053,180.533471 L62.005053,17.3142966 C62.005053,14.4080458 64.3534947,12.0520593 67.2514372,12.0520593 L142.297731,12.0520593 C145.196006,12.0520593 147.544781,14.4080458 147.544781,17.3142966" id="Fill-261" fill="#FFFFFE"></path>
                    <path d="M128.05298,5.08460339 C129.304418,5.08460339 130.318548,6.10199153 130.318548,7.35744915 C130.318548,8.61290678 129.304418,9.63029492 128.05298,9.63029492 C126.801543,9.63029492 125.787413,8.61290678 125.787413,7.35744915 C125.787413,6.10199153 126.801543,5.08460339 128.05298,5.08460339" id="Fill-262" fill="#838787"></path>
                    <path d="M119.343843,5.08460339 C120.59528,5.08460339 121.60941,6.10199153 121.60941,7.35744915 C121.60941,8.61290678 120.59528,9.63029492 119.343843,9.63029492 C118.092405,9.63029492 117.078275,8.61290678 117.078275,7.35744915 C117.078275,6.10199153 118.092405,5.08460339 119.343843,5.08460339" id="Fill-263" fill="#838787"></path>
                    <path d="M109.81295,6.02519492 C110.414372,6.02519492 110.906626,6.51903051 110.906626,7.12238475 C110.906626,7.42322712 110.783147,7.69936102 110.584781,7.89669492 C110.387746,8.09569831 110.112829,8.21957458 109.81295,8.21957458 L98.7194251,8.21957458 C98.118003,8.21957458 97.6257489,7.72607288 97.6257489,7.12238475 C97.6257489,6.82154237 97.7488956,6.54574237 97.9475946,6.34807458 C98.1446293,6.14907119 98.4195461,6.02519492 98.7194251,6.02519492 L109.81295,6.02519492" id="Fill-264" fill="#838787"></path>
                    <path d="M58.3299546,37.6617254 L58.3299546,62.324122 C58.3299546,62.7832322 57.9551891,63.1595356 57.4972163,63.1595356 L57.4269894,63.1561966 C57.0006354,63.1204695 56.6628139,62.7598593 56.6628139,62.324122 L56.6628139,37.6617254 C56.6628139,37.2256542 57.0006354,36.8650441 57.4269894,36.8289831 L57.4972163,36.825978 C57.7268684,36.825978 57.9345537,36.9201373 58.0849924,37.072061 C58.2364297,37.2226492 58.3299546,37.4310017 58.3299546,37.6617254" id="Fill-265" fill="#838787"></path>
                    <g id="Group-288" transform="translate(61.239032, 12.000000)">
                        <mask id="mask-2" fill="white">
                            <use xlink:href="#path-1"></use>
                        </mask>
                        <g id="Clip-267"></g>
                        <path d="M50.1675038,136.332681 C50.1675038,136.332681 50.9855976,136.932363 50.9855976,137.995161 C50.9855976,139.058627 51.0574887,139.83661 49.4342814,140.261663 C47.8064145,140.687049 45.8310741,141.682066 43.9918608,142.107453 C42.1563086,142.532505 41.5206051,143.735875 39.9649622,144.799007 C38.413646,145.862139 36.9981241,146.427429 34.9508926,146.427429 C34.9508926,146.427429 32.7595461,149.404132 29.7923752,155.926836 C27.7790923,160.345312 25.3800605,164.048578 23.1630862,166.617258 C22.1076853,167.837322 21.0948865,168.798615 20.1875946,169.461737 C17.3605446,171.51588 15.8049017,172.935949 14.3933737,173.573695 C12.9818457,174.211775 10.3668079,173.216758 8.6713767,172.366319 C6.97594554,171.51588 5.84432678,169.814668 5.42030257,168.398939 C5.0092587,167.025615 4.73800303,165.260629 4.72102874,165.15879 C5.27186082,164.665288 5.88226929,164.235895 6.55225416,163.934051 C9.62493192,162.552046 12.804115,159.894215 13.0157943,155.748534 C13.2278064,151.602519 13.8635098,151.389825 18.6322844,147.563017 C20.0478064,146.423088 21.0226626,144.989997 21.6583661,143.446719 C21.6583661,143.446719 24.1422693,141.257014 26.4734039,139.198864 C28.8048714,137.144722 30.7842057,136.932363 32.9036611,133.458151 C35.0231165,129.988614 39.4014826,123.325339 39.685053,122.972075 C39.9649622,122.615137 39.9649622,121.517947 43.2160363,120.931288 C43.4959455,120.879868 43.7672012,120.833456 44.0341301,120.794724 C44.2544629,120.761 44.470469,120.726942 44.6824811,120.697225 C47.1876853,120.365331 48.9596672,120.488539 49.0442057,121.411434 C49.06118,121.598751 48.989289,121.802763 48.8534947,122.011115 C48.1838427,123.048537 45.9542209,124.307334 44.8395764,124.953761 C44.3729501,125.225888 43.9665658,125.4299 43.631407,125.578819 L43.9918608,127.930464 L43.9918608,127.938812 C44.466475,127.934471 45.0259607,127.930464 45.687292,127.930464 C49.7947352,127.930464 51.6043268,128.432314 51.8120121,129.835354 C51.8246596,129.928846 51.8333132,130.026678 51.8333132,130.128851 C51.8333132,131.591325 51.5490772,132.369642 50.4177912,132.667146 C50.4177912,132.667146 51.8333132,133.241451 51.8333132,134.20241 C51.8333132,135.014451 51.3756732,136.035178 50.1675038,136.332681" id="Fill-266" fill="#EA909C" mask="url(#mask-2)"></path>
                        <path d="M50.1675038,136.332681 C51.3756732,136.035178 51.8333132,135.014451 51.8333132,134.20241 C51.8333132,133.241451 50.4177912,132.667146 50.4177912,132.667146 C51.5490772,132.369642 51.8333132,131.591325 51.8333132,130.128851 C51.8333132,130.026678 51.8246596,129.928846 51.8120121,129.835354 L52.4350681,129.809978 C52.7319516,131.395995 53.9950378,131.906192 55.3682905,131.969966 L55.3682905,131.978647 C55.3682905,131.978647 53.9184871,132.288839 54.2027231,134.30859 C54.469652,136.238856 55.0970348,136.583773 57.1229652,136.362732 C57.1229652,136.362732 56.7501967,136.762408 56.5847806,137.340386 L56.5804539,137.340386 L50.9855976,137.995161 C50.9855976,136.932363 50.1675038,136.332681 50.1675038,136.332681" id="Fill-268" fill="#A6A9AD" mask="url(#mask-2)"></path>
                        <path d="M55.3682905,131.969966 C53.9950378,131.906192 52.7319516,131.395995 52.4350681,129.809978 C52.0113767,127.5772 54.2706203,126.514068 54.2706203,126.514068 C54.2706203,126.514068 60.8613011,125.953119 61.1834796,125.948778 C60.4079879,125.82991 59.7466566,125.663963 59.7466566,125.663963 C59.6957337,125.676651 59.1998185,125.676651 55.0843873,125.378814 C50.137882,125.025883 49.0442057,124.388137 49.0442057,123.04019 C49.0442057,122.661549 49.1630257,122.359705 49.3750378,122.121636 C49.9215431,121.504925 51.0787897,121.296573 52.4014523,121.271197 C53.8382753,121.24148 57.7124054,120.999069 60.6579425,120.943976 C61.4717095,120.931288 62.2179123,120.931288 62.8196672,120.952324 C65.6087746,121.058837 64.8329501,121.802763 65.8587292,122.121636 C66.8801815,122.440508 69.6057186,125.948778 69.6057186,125.948778 C69.6057186,125.948778 71.4026626,127.364507 75.0058699,130.413666 C77.7906505,132.764978 80.4056884,135.546017 82.1986384,137.633883 L81.5755825,133.458151 L97.30941,126.956483 C97.30941,126.956483 101.00115,148.485578 100.509228,154.932153 C100.013646,161.382734 100.933585,163.793814 98.1784266,166.982876 C95.4232678,170.171939 92.5239939,171.303186 90.9726778,171.090493 C89.4170348,170.878134 88.3576399,167.833315 85.3182451,166.272675 C84.1822995,165.686015 82.8812708,164.371792 81.5968835,162.74771 L81.5968835,162.743369 C79.4564599,160.026439 77.3836006,156.450054 76.2772769,154.013598 C74.5096218,150.114334 70.627171,141.864708 69.6057186,141.112102 C67.7704992,139.768495 61.4760363,140.015246 59.1109531,139.909066 C56.7455371,139.802553 56.7455371,139.270986 56.5338578,138.241912 C56.4659607,137.914692 56.4999092,137.608507 56.5847806,137.340386 C56.7501967,136.762408 57.1229652,136.362732 57.1229652,136.362732 C55.0970348,136.583773 54.469652,136.238856 54.2027231,134.30859 C53.9184871,132.288839 55.3682905,131.978647 55.3682905,131.978647 L55.3682905,131.969966" id="Fill-269" fill="#EA909C" mask="url(#mask-2)"></path>
                        <path d="M81.5755825,133.458151 L82.1986384,137.633883 C80.4056884,135.546017 77.7906505,132.764978 75.0058699,130.413666 C71.4026626,127.364507 69.6057186,125.948778 69.6057186,125.948778 C69.6057186,125.948778 66.8801815,122.440508 65.8587292,122.121636 C64.8329501,121.802763 65.6087746,121.058837 62.8196672,120.952324 C62.2179123,120.931288 61.4717095,120.931288 60.6579425,120.943976 L60.6579425,120.931288 C60.6579425,120.931288 60.6116793,117.040037 60.6536157,114.684719 C60.6536157,114.603581 60.6579425,114.527119 60.6579425,114.45099 C60.7088654,112.128727 58.3860514,112.592512 58.3860514,112.592512 C58.3860514,112.592512 48.726354,113.366154 46.4288351,113.519414 C44.1359758,113.67668 43.9918608,116.049695 43.9918608,116.049695 L43.9918608,120.531278 L44.0341301,120.794724 C43.7672012,120.833456 43.4959455,120.879868 43.2160363,120.931288 C39.9649622,121.517947 39.9649622,122.615137 39.685053,122.972075 C39.4014826,123.325339 35.0231165,129.988614 32.9036611,133.458151 C30.7842057,136.932363 28.8048714,137.144722 26.4734039,139.198864 C24.1422693,141.257014 21.6583661,143.446719 21.6583661,143.446719 C23.1717398,139.794205 22.8199395,135.5163 22.0737368,133.054134 C21.0143419,129.541858 21.0143419,126.038263 24.5662935,121.998427 C28.1179123,117.958592 32.2466566,111.844246 35.2134947,107.855497 C38.1806657,103.871088 37.3329501,100.839292 35.1416036,96.3233169 C34.8786687,95.7793966 34.6919516,95.1880627 34.5691377,94.5586644 L34.5734644,94.5586644 C34.5734644,94.5586644 36.497882,97.5393746 44.4155522,98.5217034 C46.4797579,98.7768017 48.9510136,98.9000102 51.9052042,98.7938305 C66.1765809,98.2879746 68.9996369,88.3164356 68.9996369,88.3164356 C68.9996369,88.3164356 77.9730408,89.6600424 81.5755825,91.4333763 C85.1784569,93.2067102 88.1456278,92.5686305 90.4767625,95.545 C92.8078971,98.5217034 104.040212,124.175444 104.040212,124.175444 L97.30941,126.956483 L81.5755825,133.458151" id="Fill-270" fill="#DB1B63" mask="url(#mask-2)"></path>
                        <path d="M83.5549168,173.7737 L19.9759153,173.7737 L23.1630862,166.617258 C25.3800605,164.048578 27.7790923,160.345312 29.7923752,155.926836 C32.7595461,149.404132 34.9508926,146.427429 34.9508926,146.427429 C36.9981241,146.427429 38.413646,145.862139 39.9649622,144.799007 C41.5206051,143.735875 42.1563086,142.532505 43.9918608,142.107453 C45.8310741,141.682066 47.8064145,140.687049 49.4342814,140.261663 C51.0574887,139.83661 50.9855976,139.058627 50.9855976,137.995161 L56.5804539,137.340386 L56.5847806,137.340386 C56.4999092,137.608507 56.4659607,137.914692 56.5338578,138.241912 C56.7455371,139.270986 56.7455371,139.802553 59.1109531,139.909066 C61.4760363,140.015246 67.7704992,139.768495 69.6057186,141.112102 C70.627171,141.864708 74.5096218,150.114334 76.2772769,154.013598 C77.3836006,156.450054 79.4564599,160.026439 81.5968835,162.743369 L81.5968835,162.74771 C81.6138578,162.858231 81.8681392,164.865293 82.2112859,167.688737 C82.5634191,170.597325 83.5549168,173.7737 83.5549168,173.7737" id="Fill-271" fill="#DB1B63" mask="url(#mask-2)"></path>
                        <path d="M68.9996369,88.3164356 C68.9996369,88.3164356 66.1765809,98.2879746 51.9052042,98.7938305 C48.9510136,98.9000102 46.4797579,98.7768017 44.4155522,98.5217034 C38.2698638,96.8929475 39.3292587,90.6550593 39.3292587,90.6550593 C39.2613616,87.1087254 42.1563086,82.9289864 48.726354,81.2281085 C55.2963994,79.5268966 56.7075946,76.5505271 56.7075946,76.5505271 C56.7075946,76.5505271 56.2156732,87.4659966 68.9996369,88.3164356" id="Fill-272" fill="#EA909C" mask="url(#mask-2)"></path>
                        <path d="M60.6579425,120.931288 L60.6579425,120.943976 C57.7124054,120.999069 53.8382753,121.24148 52.4014523,121.271197 C51.0787897,121.296573 49.9215431,121.504925 49.3750378,122.121636 L48.8534947,122.011115 C48.989289,121.802763 49.06118,121.598751 49.0442057,121.411434 C48.9596672,120.488539 47.1876853,120.365331 44.6824811,120.697225 L44.6615129,120.531278 L44.6615129,116.512812 C44.6615129,116.512812 44.3519818,114.812268 46.0008169,114.603581 C47.6453253,114.399569 58.8057489,113.5705 58.8057489,113.5705 C58.8057489,113.5705 60.6156732,113.324083 60.6536157,114.684719 C60.6116793,117.040037 60.6579425,120.931288 60.6579425,120.931288" id="Fill-273" fill="#A6A9AD" mask="url(#mask-2)"></path>
                        <path d="M58.3860514,112.592512 C58.3860514,112.592512 60.7088654,112.128727 60.6579425,114.45099 C60.6579425,114.527119 60.6536157,114.603581 60.6536157,114.684719 C60.6156732,113.324083 58.8057489,113.5705 58.8057489,113.5705 C58.8057489,113.5705 47.6453253,114.399569 46.0008169,114.603581 C44.3519818,114.812268 44.6615129,116.512812 44.6615129,116.512812 L44.6615129,120.531278 L44.6824811,120.697225 C44.470469,120.726942 44.2544629,120.761 44.0341301,120.794724 L43.9918608,120.531278 L43.9918608,116.049695 C43.9918608,116.049695 44.1359758,113.67668 46.4288351,113.519414 C48.726354,113.366154 58.3860514,112.592512 58.3860514,112.592512" id="Fill-274" fill="#838787" mask="url(#mask-2)"></path>
                        <path d="M59.2167927,55.0428017 C59.3569138,55.3957322 60.5604236,56.9563729 60.3484115,62.7308102 C60.1367322,68.5052475 58.9711649,75.168522 56.7075946,76.5505271 C54.448351,77.9325322 53.2827837,78.1792831 49.5021785,78.0046542 C45.7252345,77.8260186 43.0040242,77.4350237 41.2027534,76.9034576 C39.4014826,76.3718915 38.4093192,76.0827356 38.4093192,76.0827356 L38.4053253,76.0827356 C38.9055673,69.7597034 36.0698638,59.0906508 35.374584,52.0490695 C34.5777912,43.9697322 35.9044478,42.0564949 38.2908321,38.4206763 C40.6728896,34.7891983 46.022118,36.5284746 46.3952194,36.5284746 C46.3952194,36.5284746 49.6502874,36.8089492 50.9855976,38.4206763 C50.9855976,38.4206763 53.7407564,41.3629881 55.2963994,44.9777712 C56.8520424,48.5918864 56.8520424,49.0172729 57.2757337,51.2837746 C57.6994251,53.5542831 59.0770045,54.6855305 59.2167927,55.0428017" id="Fill-275" fill="#EA909C" mask="url(#mask-2)"></path>
                        <path d="M59.7466566,125.663963 C59.7466566,125.663963 60.4079879,125.82991 61.1834796,125.948778 C60.8613011,125.953119 54.2706203,126.514068 54.2706203,126.514068 C54.2706203,126.514068 52.0113767,127.5772 52.4350681,129.809978 L51.8120121,129.835354 C51.6043268,128.432314 49.7947352,127.930464 45.687292,127.930464 C45.0259607,127.930464 44.466475,127.934471 43.9918608,127.938812 L43.9918608,127.930464 L43.631407,125.578819 C43.9665658,125.4299 44.3729501,125.225888 44.8395764,124.953761 C45.9542209,124.307334 48.1838427,123.048537 48.8534947,122.011115 L49.3750378,122.121636 C49.1630257,122.359705 49.0442057,122.661549 49.0442057,123.04019 C49.0442057,124.388137 50.137882,125.025883 55.0843873,125.378814 C59.1998185,125.676651 59.6957337,125.676651 59.7466566,125.663963" id="Fill-276" fill="#A6A9AD" mask="url(#mask-2)"></path>
                        <path d="M0.76096823,169.479661 C0.76096823,169.479661 -4.25636914,164.252924 -3.62066566,159.15029 C-2.98496218,154.047322 -1.39537065,146.712578 -1.71322239,146.499885 C-2.03107413,146.287192 -8.38910741,134.593739 0.512072617,121.092561 C0.512072617,121.092561 -3.19664145,111.206166 3.90293495,105.465453 C3.90293495,105.465453 -1.39537065,95.5793915 4.53863843,87.1811814 C10.4726475,78.7829712 12.2742511,77.1882729 12.062239,72.6172051 C11.8505598,68.0461373 8.35352496,56.2461712 16.7245083,46.2532627 C16.7245083,46.2532627 27.0032678,19.2515746 46.3952194,31.1577203 C46.3952194,31.1577203 59.9077458,36.2222898 59.2167927,55.0428017 C59.0770045,54.6855305 57.6994251,53.5542831 57.2757337,51.2837746 C56.8520424,49.0172729 56.8520424,48.5918864 55.2963994,44.9777712 C53.7407564,41.3629881 50.9855976,38.4206763 50.9855976,38.4206763 C49.6502874,36.8089492 46.3952194,36.5284746 46.3952194,36.5284746 C46.022118,36.5284746 40.6728896,34.7891983 38.2908321,38.4206763 C35.9044478,42.0564949 34.5777912,43.9697322 35.374584,52.0490695 C36.0698638,59.0906508 38.9055673,69.7597034 38.4053253,76.0827356 C38.3331014,77.013978 38.1889864,77.8517288 37.9516793,78.570278 C36.3367927,83.4772475 33.6961271,89.9875966 34.5691377,94.5586644 C34.6919516,95.1880627 34.8786687,95.7793966 35.1416036,96.3233169 C37.3329501,100.839292 38.1806657,103.871088 35.2134947,107.855497 C32.2466566,111.844246 28.1179123,117.958592 24.5662935,121.998427 C21.0143419,126.038263 21.0143419,129.541858 22.0737368,133.054134 C22.8199395,135.5163 23.1717398,139.794205 21.6583661,143.446719 C21.0226626,144.989997 20.0478064,146.423088 18.6322844,147.563017 C13.8635098,151.389825 13.2278064,151.602519 13.0157943,155.748534 C12.804115,159.894215 9.62493192,162.552046 6.55225416,163.934051 C5.88226929,164.235895 5.27186082,164.665288 4.72102874,165.15879 C2.73736762,166.923442 0.76096823,169.479661 0.76096823,169.479661 Z" id="Fill-277" fill="#141831" mask="url(#mask-2)"></path>
                        <path d="M56.7075946,76.5505271 C56.7075946,76.5505271 55.2963994,79.5268966 48.726354,81.2281085 C42.1563086,82.9289864 39.2613616,87.1087254 39.3292587,90.6550593 C39.3292587,90.6550593 38.2698638,96.8929475 44.4155522,98.5217034 C36.497882,97.5393746 34.5734644,94.5586644 34.5734644,94.5586644 L34.5691377,94.5586644 C33.6961271,89.9875966 36.3367927,83.4772475 37.9516793,78.570278 C38.1889864,77.8517288 38.3331014,77.013978 38.4053253,76.0827356 L38.4093192,76.0827356 C38.4093192,76.0827356 39.4014826,76.3718915 41.2027534,76.9034576 C43.0040242,77.4350237 45.7252345,77.8260186 49.5021785,78.0046542 C53.2827837,78.1792831 54.448351,77.9325322 56.7075946,76.5505271" id="Fill-278" fill="#B06576" mask="url(#mask-2)"></path>
                        <path d="M81.5456278,132.765646 L81.5056884,132.787349 L81.5459607,132.76598 L81.5456278,132.765646 L81.5056884,132.787349 L81.5459607,132.76598 C81.5383056,132.751288 81.2088048,132.117883 81.208472,130.845731 C81.2088048,129.996293 81.3555825,128.861373 81.8478366,127.434292 C83.1278971,123.725015 83.342239,120.933292 83.4820272,119.519232 C83.4936762,119.402368 83.408472,119.298192 83.2919818,119.286505 C83.1754917,119.274819 83.0719818,119.360297 83.0603328,119.477161 C82.919879,120.895227 82.7105295,123.63119 81.4474433,127.295056 C80.9408775,128.763541 80.7847804,129.946876 80.7847804,130.845731 C80.7844478,132.236083 81.1588805,132.942612 81.1731921,132.968656 C81.2291074,133.071831 81.3575794,133.109895 81.4604236,133.0538 C81.5632678,132.997705 81.6015431,132.86882 81.5456278,132.765646" id="Fill-279" fill="#A70C46" mask="url(#mask-2)"></path>
                        <path d="M61.8478064,126.241607 C62.0541604,126.259637 62.2598487,126.27099 62.455885,126.27099 C62.7281392,126.270656 62.9800908,126.249954 63.1970953,126.186847 L63.1960968,126.187181 C64.2072315,125.895354 64.6904992,125.565797 64.7074735,125.55411 C64.8036611,125.487331 64.8282905,125.355107 64.7617247,125.258276 C64.6954917,125.161446 64.5636914,125.137071 64.467171,125.203517 L64.4648411,125.205186 C64.4268986,125.230229 63.9825719,125.517381 63.078941,125.77849 L63.0779425,125.778824 C62.925174,125.824234 62.7045083,125.846271 62.455885,125.845937 C62.2764902,125.845937 62.082118,125.835253 61.8844175,125.81789 C61.7679274,125.807539 61.6650832,125.894353 61.6550983,126.011217 C61.6447806,126.128081 61.7309834,126.231256 61.8478064,126.241607" id="Fill-280" fill="#B06576" mask="url(#mask-2)"></path>
                        <path d="M97.1596369,150.295975 C96.4264145,148.973069 95.1646596,147.875546 93.7890772,146.978027 C92.412829,146.081176 90.9187595,145.385666 89.7095915,144.887156 C88.5526778,144.409014 87.4573374,143.489458 86.4531921,142.427995 C85.4483812,141.3672 84.5340998,140.167837 83.7209985,139.139097 L83.7203328,139.138429 C83.4996672,138.861293 83.2487141,138.549432 82.9674735,138.211861 C82.8922542,138.122042 82.7584569,138.110022 82.6689259,138.185149 C82.579062,138.26061 82.5670802,138.394503 82.6422995,138.484656 C82.9205446,138.818888 83.1695008,139.128078 83.3895008,139.403878 L83.3888351,139.40321 C84.198941,140.427944 85.1202118,141.637658 86.1459909,142.720824 C87.1721029,143.803656 88.3023903,144.763614 89.5481694,145.280154 C90.7426929,145.772654 92.2154614,146.459149 93.5580938,147.334631 C94.9017247,148.20911 96.1108926,149.273912 96.7891982,150.502324 C96.8457791,150.604831 96.9749168,150.641893 97.0770953,150.585131 C97.1796067,150.528034 97.2165507,150.398481 97.1596369,150.295975" id="Fill-281" fill="#B06576" mask="url(#mask-2)"></path>
                        <path d="M55.7560363,132.191007 C56.210348,132.186666 56.6646596,132.138585 57.0950076,132.074142 C58.0292587,131.933571 59.2297731,131.757273 60.1966415,131.616034 C61.163177,131.474461 61.8947352,131.368281 61.8963994,131.368281 C62.0122239,131.351586 62.0924357,131.243737 62.0757943,131.127541 C62.0591528,131.011344 61.951649,130.930541 61.8358245,130.947236 C61.8354917,130.947236 58.9026021,131.372622 57.0324357,131.653431 C56.6147352,131.716203 56.179062,131.761947 55.7520424,131.765954 C55.6348865,131.766956 55.5406959,131.863119 55.5420133,131.980651 C55.5430257,132.097849 55.6388805,132.192342 55.7560363,132.191007" id="Fill-282" fill="#B06576" mask="url(#mask-2)"></path>
                        <path d="M57.4414826,136.539364 C59.7017247,136.25889 62.634947,135.875908 62.6352799,135.875908 C62.7511044,135.860883 62.8329803,135.754036 62.818003,135.637839 C62.8030257,135.521308 62.6965204,135.439169 62.5803631,135.454195 C62.5786989,135.454529 61.8474735,135.550024 60.8320121,135.680578 C59.8165507,135.811466 58.5185174,135.97708 57.3895613,136.117317 C57.2734039,136.131675 57.1908623,136.237854 57.205174,136.354385 C57.2194856,136.470915 57.3253253,136.553722 57.4414826,136.539364" id="Fill-283" fill="#B06576" mask="url(#mask-2)"></path>
                        <path d="M43.2206959,125.52239 C43.018003,125.605197 42.8605749,125.660958 42.7550681,125.695683 C42.7021483,125.713046 42.6622088,125.725066 42.6362481,125.732746 L42.6076248,125.740759 L42.5999697,125.742763 C42.486475,125.771812 42.4179123,125.887675 42.4468684,126.001534 C42.4761573,126.115059 42.5913162,126.183842 42.7048109,126.154793 C42.7134644,126.152456 42.955764,126.090017 43.3807867,125.916056 C43.489289,125.871647 43.5412103,125.747771 43.496944,125.63892 C43.4530106,125.530403 43.3291982,125.477981 43.2206959,125.52239" id="Fill-284" fill="#B06576" mask="url(#mask-2)"></path>
                        <path d="M49.9681392,132.541934 C49.4981846,132.609715 48.6261725,132.634424 47.6879274,132.63409 C46.748351,132.63409 45.7355522,132.610717 44.9587292,132.58701 C44.1815734,132.563303 43.6417247,132.539931 43.6403933,132.539931 C43.5235703,132.534922 43.4247201,132.625742 43.4197277,132.742941 C43.4147352,132.860473 43.5052648,132.959641 43.6220877,132.964649 C43.6237519,132.964649 45.7951286,133.059476 47.6879274,133.059476 C48.6361573,133.059142 49.5088351,133.036771 50.0280484,132.962646 C50.1438729,132.946285 50.2244175,132.838436 50.2077761,132.722239 C50.1911346,132.606042 50.0839637,132.525239 49.9681392,132.541934" id="Fill-285" fill="#B06576" mask="url(#mask-2)"></path>
                        <path d="M40.9298336,128.120453 C40.9847504,128.1485 41.0506505,128.175546 41.1258699,128.189236 C41.2007564,128.202925 41.2789713,128.206598 41.3858094,128.206598 C41.6643873,128.206598 42.1646293,128.178885 43.304236,128.159853 C43.4213918,128.157849 43.514584,128.061019 43.512587,127.94382 C43.5109228,127.826288 43.4144024,127.732797 43.2972466,127.7348 C42.155643,127.753832 41.6400908,127.781546 41.3858094,127.781546 C41.289289,127.781546 41.234705,127.777205 41.2037519,127.771195 C41.1727988,127.764851 41.1598185,127.760176 41.1195461,127.740142 C41.014705,127.68772 40.8872315,127.730125 40.8349773,127.835303 C40.7827231,127.940147 40.8253253,128.068031 40.9298336,128.120453" id="Fill-286" fill="#B06576" mask="url(#mask-2)"></path>
                        <path d="M50.0020877,136.15438 C49.8300151,136.189439 49.6409682,136.209473 49.4342814,136.209473 L49.4326172,136.209473 C48.5466263,136.215817 47.4136762,136.236853 46.3835703,136.292614 C45.8686838,136.320327 45.3794251,136.356722 44.9577307,136.404469 C44.5357035,136.452551 44.184236,136.510315 43.929289,136.588781 C43.8174584,136.623507 43.7548865,136.742708 43.7891679,136.854898 C43.8237821,136.967088 43.9426021,137.029861 44.0544327,136.995136 C44.2594554,136.931027 44.5972769,136.872929 45.0053253,136.826851 C46.2341301,136.687615 48.1139486,136.643875 49.4356127,136.634525 L49.4342814,136.634525 C49.6679274,136.634525 49.8859304,136.612154 50.0869592,136.570751 C50.2014523,136.547378 50.2753404,136.435188 50.2520424,136.319993 C50.2287443,136.205132 50.1169138,136.130673 50.0020877,136.15438 L50.0020877,136.15438" id="Fill-287" fill="#B06576" mask="url(#mask-2)"></path>
                    </g>
                    <path d="M206.375643,15.2892034 L128.772557,15.2892034 C121.460303,15.2892034 115.476702,21.2913593 115.476702,28.6277729 L115.476702,40.8661475 C115.476702,48.2022271 121.460303,54.2047169 128.772557,54.2047169 L133.158911,54.2047169 L125.975461,63.8840949 L153.051437,54.2047169 L206.375643,54.2047169 C213.688563,54.2047169 219.671831,48.2022271 219.671831,40.8661475 L219.671831,28.6277729 C219.671831,21.2913593 213.688563,15.2892034 206.375643,15.2892034" id="Fill-293" fill="#1B47DB"></path>
                    <path d="M205.685023,26.5278864 L129.46351,26.5278864 C129.149652,26.5278864 128.893041,26.2704508 128.893041,25.9555847 L128.893041,24.6360186 C128.893041,24.3214864 129.149652,24.0640508 129.46351,24.0640508 L205.685023,24.0640508 C205.99888,24.0640508 206.255492,24.3214864 206.255492,24.6360186 L206.255492,25.9555847 C206.255492,26.2704508 205.99888,26.5278864 205.685023,26.5278864" id="Fill-294" fill="#FFFFFE"></path>
                    <path d="M205.685023,34.6583102 L129.46351,34.6583102 C129.149652,34.6583102 128.893041,34.4008746 128.893041,34.0863424 L128.893041,32.7667763 C128.893041,32.4519102 129.149652,32.1944746 129.46351,32.1944746 L205.685023,32.1944746 C205.99888,32.1944746 206.255492,32.4519102 206.255492,32.7667763 L206.255492,34.0863424 C206.255492,34.4008746 205.99888,34.6583102 205.685023,34.6583102" id="Fill-295" fill="#FFFFFE"></path>
                    <path d="M205.685023,43.5006051 L129.46351,43.5006051 C129.149652,43.5006051 128.893041,43.2431695 128.893041,42.9283034 L128.893041,41.6087373 C128.893041,41.2942051 129.149652,41.0367695 129.46351,41.0367695 L205.685023,41.0367695 C205.99888,41.0367695 206.255492,41.2942051 206.255492,41.6087373 L206.255492,42.9283034 C206.255492,43.2431695 205.99888,43.5006051 205.685023,43.5006051" id="Fill-296" fill="#FFFFFE"></path>
                </g>
            </g>
        </g>
    </g>
</svg>