<?xml version="1.0" encoding="UTF-8"?>
<svg width="280px" height="226px" viewBox="0 0 280 226" version="1.1" xmlns="http://www.w3.org/2000/svg" xmlns:xlink="http://www.w3.org/1999/xlink">
    <!-- Generator: Sketch 55.2 (78181) - https://sketchapp.com -->
    <title>illustration</title>
    <desc>Created with Sketch.</desc>
    <g id="Web-Wireframe-" stroke="none" stroke-width="1" fill="none" fill-rule="evenodd">
        <g id="Login-web-2" transform="translate(-522.000000, -271.000000)">
            <g id="modal" transform="translate(172.000000, 184.000000)">
                <g id="illustration" transform="translate(350.000000, 87.000000)">
                    <polyline id="Fill-173" fill="#ACB2B3" points="0.875795869 106.94086 0.386343686 106.94086 0.386343686 104.514194 0.0864366864 104.514194 0.0864366864 104.06079 0.386343686 104.06079 0.386343686 103.025075 0.875795869 103.025075 0.875795869 104.06079 1.38949796 104.06079 1.38949796 104.514194 0.875795869 104.514194 0.875795869 106.94086"></polyline>
                    <path d="M210.642431,223.889372 L218.831228,206.397245 C208.300336,202.099697 203.099226,185.797973 201.321064,178.868749 C205.573953,193.365781 222.01143,203.339432 222.01143,203.339432 C232.01229,193.653094 236.597501,168.195036 233.107,163.837746 C229.707806,159.562509 218.986626,141.190843 218.541962,140.423353 L238.252434,163.552416 C238.252434,163.552416 243.490908,145.488885 242.331119,135.961946 C241.201024,126.720831 233.07978,109.083436 232.573254,107.988474 L245.522457,130.254359 C251.141506,110.743852 246.669131,73.0728872 246.669131,73.0728872 C253.720904,100.994548 250.276675,130.954669 250.276675,130.954669 C257.986661,126.104806 267.068498,111.501178 267.636391,110.590652 C259.947191,131.396669 248.662077,139.440936 248.662077,139.440936 C245.710022,155.446671 241.834739,169.833637 241.834739,169.833637 C251.172932,167.385155 270.087364,154.336835 270.087364,154.336835 C256.984744,168.502181 241.050823,175.148306 241.050823,175.148306 C237.370282,190.719725 228.294383,204.90639 228.294383,204.90639 C239.542875,204.510994 251.257559,199.813589 251.960807,199.529499 C238.157909,209.873756 220.988728,210.827912 220.988728,210.827912 L215.701753,223.608504 L215.662409,224.459783 C213.874102,224.35765 212.182053,224.178172 210.642431,223.889372" id="Fill-174" fill="#F9F9F9"></path>
                    <path d="M200.721498,176.353087 C200.869472,177.208828 201.073369,178.032839 201.320322,178.854123 C201.04318,177.746518 200.837798,176.893999 200.721498,176.353087 Z M232.573254,107.988474 C233.07978,109.083436 241.201024,126.720831 242.331119,135.961946 C243.490908,145.488885 238.252434,163.552416 238.252434,163.552416 L218.541962,140.423353 C218.986626,141.190843 229.707806,159.562509 233.107,163.837746 C236.597501,168.195036 232.01229,193.653094 222.01143,203.339432 C222.01143,203.339432 205.573953,193.365781 201.321064,178.868749 C203.099226,185.797973 208.300336,202.099697 218.831228,206.397245 L210.642431,223.889372 C207.724029,223.360359 205.275531,222.502634 203.483512,221.291656 C201.392824,219.881617 191.700533,209.704938 187.661686,188.68672 C183.622592,167.668254 188.660386,141.825212 197.636563,154.647946 C206.612493,167.470928 210.61249,181.290209 215.888082,172.715938 C221.163426,164.141668 195.408294,140.370055 204.227094,130.878812 C213.045646,121.387321 219.155633,134.369701 228.072917,133.153765 C236.990201,131.938077 228.232274,129.544629 224.671249,110.660063 C221.109482,91.7752488 231.002702,88.7052891 235.2014,99.6335923 C239.400593,110.5614 240.654412,113.732006 241.132234,109.384879 C241.610551,105.038001 232.656892,60.1695865 244.480205,59.5124108 C256.304014,58.855731 263.388451,82.9449002 260.08304,94.6498656 C256.778125,106.355327 258.967545,106.953503 263.824454,103.803224 C268.681612,100.653194 279.768768,99.6767264 274.433293,113.65491 C269.097572,127.633589 254.485766,149.327823 259.74082,146.875871 C264.995626,144.423423 285.051783,137.188045 278.277151,150.886105 C271.503014,164.58466 247.058119,183.945437 251.118493,185.880275 C255.179115,187.814617 278.310061,177.167678 279.602482,187.537716 C280.895646,197.906763 279.919711,206.242061 259.934077,215.273702 C245.811476,221.661519 228.108797,225.179925 215.662409,224.459783 L215.701753,223.608504 L220.988728,210.827912 C220.988728,210.827912 238.157909,209.873756 251.960807,199.529499 C251.257559,199.813589 239.542875,204.510994 228.294383,204.90639 C228.294383,204.90639 237.370282,190.719725 241.050823,175.148306 C241.050823,175.148306 256.984744,168.502181 270.087364,154.336835 C270.087364,154.336835 251.172932,167.385155 241.834739,169.833637 C241.834739,169.833637 245.710022,155.446671 248.662077,139.440936 C248.662077,139.440936 259.947191,131.396669 267.636391,110.590652 C267.068498,111.501178 257.986661,126.104806 250.276675,130.954669 C250.276675,130.954669 253.720904,100.994548 246.669131,73.0728872 C246.669131,73.0728872 251.141506,110.743852 245.522457,130.254359 L232.573254,107.988474 L232.573254,107.988474 Z" id="Fill-175" fill="#CCD6F7"></path>
                    <path d="M178.855011,223.990018 C178.811955,223.90375 174.455138,215.286097 165.687065,206.332543 C157.583637,198.057485 143.938116,187.773466 124.94945,185.772688 C91.4548858,182.243374 86.1369804,178.985756 68.5164544,168.192309 C67.0956079,167.32219 65.5948356,166.402491 63.9931046,165.429742 C42.7088632,152.50537 34.6489863,127.216874 34.5698029,126.963027 L33.145987,127.407011 C33.2264076,127.666311 41.4580134,153.492992 63.220077,166.707652 C64.8200759,167.67941 66.319116,168.597621 67.7384778,169.467245 C85.57948,180.395796 90.963949,183.694069 124.793063,187.258584 C143.321475,189.210775 156.660161,199.258299 164.587158,207.343221 C173.205278,216.132914 177.4792,224.574808 177.521266,224.659093 L178.855011,223.990018" id="Fill-176" fill="#CCD6F7"></path>
                    <path d="M164.837081,206.536315 C164.837081,206.536315 157.178565,200.526789 145.241425,203.51643 C133.304285,206.506071 111.191092,210.311047 111.191092,210.311047 C111.191092,210.311047 111.219301,215.777429 125.189722,213.992817 C139.160142,212.208452 160.130619,203.892491 164.837081,206.536315" id="Fill-177" fill="#CCD6F7"></path>
                    <path d="M157.284967,199.83466 C157.284967,199.83466 150.749618,187.142072 153.899631,175.17855 C157.049892,163.215276 154.828798,158.959871 154.828798,158.959871 C154.828798,158.959871 160.260035,162.984731 160.182089,172.633884 C160.103648,182.283038 155.892577,196.02324 157.284967,199.83466" id="Fill-178" fill="#CCD6F7"></path>
                    <path d="M145.471551,192.44633 C145.471551,192.44633 142.622435,196.89212 126.166152,199.495289 C109.709621,202.098458 105.460196,205.082397 105.460196,205.082397 C105.460196,205.082397 103.831741,202.422956 110.835262,198.155652 C117.838783,193.888596 137.199364,190.415555 145.471551,192.44633" id="Fill-179" fill="#CCD6F7"></path>
                    <path d="M148.717327,194.190039 C148.717327,194.190039 141.404743,188.28711 144.065057,175.646828 C146.725123,163.006546 134.224049,150.730921 134.224049,150.730921 C134.224049,150.730921 139.049533,162.637427 136.464196,169.733982 C133.878859,176.830537 144.57084,192.008543 148.717327,194.190039" id="Fill-180" fill="#CCD6F7"></path>
                    <path d="M133.517337,188.055821 C133.517337,188.055821 131.221515,168.563411 122.199312,161.719215 C113.176863,154.875268 112.998205,149.142643 112.998205,149.142643 C112.998205,149.142643 110.425736,161.602456 117.859074,168.846758 C125.292413,176.090812 133.056589,184.000718 133.517337,188.055821" id="Fill-181" fill="#CCD6F7"></path>
                    <path d="M125.513631,186.587526 C126.157491,186.644294 118.652887,194.068818 105.842751,195.625364 C93.0328618,197.181911 89.5181102,200.030251 89.5181102,200.030251 C89.5181102,200.030251 87.6978825,197.883213 91.9426059,193.347684 C96.1875766,188.812156 117.672498,185.895892 125.513631,186.587526" id="Fill-182" fill="#CCD6F7"></path>
                    <path d="M116.229382,185.534458 C116.229382,185.534458 111.870585,170.611538 104.630503,166.785244 C97.3906689,162.95895 96.3889993,157.43332 96.3889993,157.43332 C96.3889993,157.43332 93.6821654,162.48026 98.211454,168.273123 C102.740743,174.065987 115.922793,182.373272 116.229382,185.534458" id="Fill-183" fill="#CCD6F7"></path>
                    <path d="M98.4141139,182.873529 C98.4141139,182.873529 96.2571095,169.678453 89.9197183,164.340977 C83.5823271,159.003501 82.7939577,155.350239 82.7939577,155.350239 C82.7939577,155.350239 81.078648,157.708238 83.4979473,163.775523 C85.9172466,169.842809 97.6257445,179.220267 98.4141139,182.873529" id="Fill-184" fill="#CCD6F7"></path>
                    <path d="M96.6238275,182.196274 C96.6238275,182.196274 95.371988,187.605144 84.3412502,189.612368 C73.3102649,191.61984 64.424159,197.067135 64.424159,197.067135 C64.424159,197.067135 62.4277484,191.663718 69.7480032,187.637867 C77.0685054,183.611767 96.6238275,182.196274 96.6238275,182.196274" id="Fill-185" fill="#CCD6F7"></path>
                    <path d="M81.1457064,176.420763 C81.1457064,176.420763 80.547872,169.896355 75.7473804,164.0435 C70.9466414,158.190646 69.2803264,151.548486 69.1590769,151.065582 C69.0378274,150.582431 65.6109197,152.758473 68.0873795,159.053576 C70.5638393,165.348679 81.1457064,176.420763 81.1457064,176.420763" id="Fill-186" fill="#CCD6F7"></path>
                    <path d="M75.0574953,173.026526 C75.0574953,173.026526 72.9626004,179.506836 62.5947758,181.091891 C52.2269513,182.676946 51.5937318,185.261523 51.5937318,185.261523 C51.5937318,185.261523 53.0118564,176.701631 58.8385149,174.849342 C64.664926,172.997054 75.0574953,173.026526 75.0574953,173.026526" id="Fill-187" fill="#CCD6F7"></path>
                    <path d="M64.2252108,166.444881 C64.2252108,166.444881 66.7328491,163.360295 63.7996002,156.266715 C60.8665989,149.173383 61.2736509,145.219173 61.2736509,145.219173 C61.2736509,145.219173 59.1597024,147.478261 59.6125323,153.369788 C60.0653622,159.261562 64.2252108,166.444881 64.2252108,166.444881" id="Fill-188" fill="#CCD6F7"></path>
                    <path d="M58.7835814,162.783191 C58.7835814,162.783191 55.1005651,166.546023 47.108489,163.807998 C39.1161654,161.069973 40.7169066,163.36327 40.7169066,163.36327 C40.7169066,163.36327 37.88041,161.252673 43.5764159,159.94675 C49.2724219,158.641075 58.7835814,162.783191 58.7835814,162.783191" id="Fill-189" fill="#CCD6F7"></path>
                    <path d="M51.9008148,156.691611 C51.9008148,156.691611 49.9348403,151.155817 51.7483868,146.590293 C53.5621808,142.025265 50.6309115,136.47187 50.6309115,136.47187 C50.6309115,136.47187 51.3311894,141.816535 49.6151374,143.660891 C47.8990854,145.505495 51.9008148,156.691611 51.9008148,156.691611" id="Fill-190" fill="#CCD6F7"></path>
                    <path d="M45.5213574,149.18553 C45.5213574,149.18553 41.0234947,143.641803 36.3214874,144.312117 C31.6197276,144.982431 28.3702402,149.90939 28.3702402,149.90939 C28.3702402,149.90939 34.1130139,146.236296 37.7673262,147.520899 C41.421886,148.805503 45.5213574,149.18553 45.5213574,149.18553" id="Fill-191" fill="#CCD6F7"></path>
                    <path d="M40.7089883,141.909001 C40.7089883,141.909001 43.3418352,141.388913 43.9698583,137.378926 C44.5978814,133.36894 47.8728559,130.714704 47.8728559,130.714704 C47.8728559,130.714704 43.0124819,131.26454 42.1112762,133.802512 C41.210318,136.340485 42.0085853,141.246124 40.7089883,141.909001" id="Fill-192" fill="#CCD6F7"></path>
                    <path d="M37.67775,136.301317 C38.2347555,136.942131 35.735778,134.05983 32.2336462,135.808249 C28.7312669,137.556917 26.160282,142.633853 26.160282,142.633853 C26.160282,142.633853 25.9536629,138.362087 28.5036147,135.500361 C31.053814,132.638635 34.8875262,133.090304 37.67775,136.301317" id="Fill-193" fill="#CCD6F7"></path>
                    <path d="M35.7382525,132.096731 C35.7382525,132.096731 41.8121116,129.544629 42.6895622,126.145957 C42.6895622,126.145957 40.0443429,126.330393 38.3052782,127.827445 C36.566461,129.324744 35.7382525,132.096731 35.7382525,132.096731" id="Fill-194" fill="#CCD6F7"></path>
                    <path d="M34.009828,127.780096 C33.172464,127.680194 30.922914,127.388171 29.3055937,126.058945 C27.6885209,124.72972 24.7931317,125.926816 24.7931317,125.926816 C24.7931317,125.926816 28.45462,129.427373 30.648989,129.039166 C32.8431106,128.650959 34.009828,127.780096 34.009828,127.780096" id="Fill-195" fill="#CCD6F7"></path>
                    <path d="M33.8024666,127.743655 C33.8851142,126.903036 34.1310776,124.6437 35.4247358,122.996918 C36.7186415,121.350137 35.4650699,118.474528 35.4650699,118.474528 C35.4650699,118.474528 32.0458331,122.212819 32.4776299,124.402744 C32.9096742,126.592668 33.8024666,127.743655 33.8024666,127.743655" id="Fill-196" fill="#CCD6F7"></path>
                    <path d="M179.250433,199.647993 C179.250433,199.647993 128.626527,50.5734832 90.1320287,33.7221705 C51.6372826,16.8711057 33.729222,38.3608242 53.7527157,88.6408358 C73.7762095,138.920599 153.292888,203.539237 153.292888,203.539237 L179.250433,199.647993" id="Fill-197" fill="#CCD6F7"></path>
                    <path d="M69.6977712,93.9872362 L100.83762,101.647758 C96.0957734,93.5873779 91.4380594,85.6586316 87.1015328,78.2683182 L54.5730059,68.3048312 L85.7564054,75.9762601 C72.8302157,53.9451339 63.0745775,37.2519797 63.0745775,37.2519797 C69.734641,44.1224525 78.4688137,56.3591576 87.8508054,70.8965971 L95.4128169,41.9801243 L89.1447111,72.9102666 C93.7878258,80.1632449 98.5705011,87.9348243 103.326947,95.8719991 L110.735046,67.5447781 L104.572353,97.9540883 C109.326324,105.923242 114.035013,114.018079 118.532875,121.880389 L126.057275,93.1094319 L119.782983,124.068578 C124.731201,132.745726 129.40005,141.093171 133.551485,148.606442 L141.379256,118.674086 L134.839947,150.941386 C144.747766,168.921623 151.41748,181.592396 151.41748,181.592396 C151.41748,181.592396 150.651628,182.759744 148.710398,181.609997 C148.187541,181.300621 141.736323,170.689378 132.589407,155.350487 L99.9473019,145.351798 L131.130454,153.023475 L131.275211,153.145193 C127.044592,146.042192 122.298044,138.033127 117.330278,129.626683 L84.8225365,119.669393 L115.9755,127.333385 C111.464522,119.696166 106.795921,111.773865 102.184727,103.938328 L69.6977712,93.9872362" id="Fill-198" fill="#FFFFFE"></path>
                    <polygon id="Fill-199" fill="#FFFFFE" points="123.504601 130.948719 180.836822 130.948719 180.836822 28.5133531 123.504601 28.5133531"></polygon>
                    <path d="M142.057758,20.5974975 C142.661284,20.5974975 143.152716,21.0898215 143.152716,21.6944429 C143.152716,22.3032786 142.661284,22.7913883 142.057758,22.7913883 C141.450026,22.7913883 140.963048,22.3032786 140.963048,21.6944429 C140.963048,21.0898215 141.450026,20.5974975 142.057758,20.5974975" id="Fill-200" fill="#4B4F4D"></path>
                    <path d="M156.804671,21.1027121 C157.218651,21.1027121 157.55914,21.4396045 157.55914,21.8585509 C157.55914,22.2730351 157.218651,22.6143897 156.804671,22.6143897 L147.967807,22.6143897 C147.54962,22.6143897 147.213338,22.2730351 147.213338,21.8585509 C147.213338,21.4396045 147.54962,21.1027121 147.967807,21.1027121 L156.804671,21.1027121" id="Fill-201" fill="#4B4F4D"></path>
                    <path d="M165.029595,137.66847 L165.029595,139.845008 C165.029595,141.045575 164.050938,142.025761 162.852548,142.025761 L141.488875,142.025761 C140.290485,142.025761 139.307621,141.045575 139.307621,139.845008 L139.307621,137.66847 C139.307621,136.472366 140.290485,135.487718 141.488875,135.487718 L162.852548,135.487718 C164.050938,135.487718 165.029595,136.472366 165.029595,137.66847" id="Fill-202" fill="#5F6260"></path>
                    <path d="M123.504601,130.948719 L180.836822,130.948719 L180.836822,28.5133531 L123.504601,28.5133531 L123.504601,130.948719 Z M119.633524,87.6727969 C119.728297,63.1696392 119.887901,29.3252166 120.09056,23.1151421 C120.413728,13.1826423 129.574006,13.3981859 129.574006,13.3981859 L175.26751,14.1543996 C175.26751,14.1543996 184.750955,13.938481 184.535428,25.5983291 C184.319901,37.2584251 183.888846,84.6541519 183.888846,84.6541519 L183.923241,84.6801811 C183.345698,85.3839614 182.815417,86.4162057 182.380156,87.8931776 C180.836822,93.1488476 181.005087,101.44473 183.832923,106.924747 L183.832923,120.33822 C183.160359,126.479131 183.673319,133.237555 183.673319,133.237555 C183.673319,133.237555 178.599645,139.529683 176.090769,146.40908 L126.358171,146.40908 L126.302248,146.404866 C126.664265,143.662626 125.164235,142.004194 122.46136,139.823441 C120.754463,138.445876 119.780261,137.569064 119.219791,137.020715 L119.219791,126.103567 C121.207046,124.108242 121.655174,121.551677 121.814778,120.282195 C121.944194,119.241275 120.581992,116.071412 119.482581,113.726552 L119.551619,113.696309 C119.551619,113.696309 119.560279,110.133529 119.577601,104.411564 C119.594675,99.9333001 119.611996,94.1248192 119.633524,87.6727969 Z M165.029595,139.845008 L165.029595,137.66847 C165.029595,136.472366 164.050938,135.487718 162.852548,135.487718 L141.488875,135.487718 C140.290485,135.487718 139.307621,136.472366 139.307621,137.66847 L139.307621,139.845008 C139.307621,141.045575 140.290485,142.025761 141.488875,142.025761 L162.852548,142.025761 C164.050938,142.025761 165.029595,141.045575 165.029595,139.845008 Z M157.55914,21.8585509 C157.55914,21.4396045 157.218651,21.1027121 156.804671,21.1027121 L147.967807,21.1027121 C147.54962,21.1027121 147.213338,21.4396045 147.213338,21.8585509 C147.213338,22.2730351 147.54962,22.6143897 147.967807,22.6143897 L156.804671,22.6143897 C157.218651,22.6143897 157.55914,22.2730351 157.55914,21.8585509 Z M143.152716,21.6944429 C143.152716,21.0898215 142.661284,20.5974975 142.057758,20.5974975 C141.450026,20.5974975 140.963048,21.0898215 140.963048,21.6944429 C140.963048,22.3032786 141.450026,22.7913883 142.057758,22.7913883 C142.661284,22.7913883 143.152716,22.3032786 143.152716,21.6944429 L143.152716,21.6944429 Z" id="Fill-203" fill="#4D504E"></path>
                    <path d="M195.083889,94.1119285 C193.725895,96.2840044 191.001492,95.126572 190.626361,94.8028182 C190.247023,94.4788165 187.014115,90.160446 187.121755,87.7850944 C187.229642,85.4099907 189.169387,84.2223148 189.169387,84.2223148 C191.260075,88.7957716 193.225802,91.8835799 195.083889,94.1119285" id="Fill-204" fill="#B16677"></path>
                    <path d="M117.935041,117.963116 C114.378718,120.446055 113.033838,124.49273 113.033838,124.49273 C113.033838,124.49273 106.188436,118.105657 110.231984,114.832174 C114.271078,111.55869 117.935041,117.963116 117.935041,117.963116" id="Fill-205" fill="#B16677"></path>
                    <path d="M119.219791,140.851223 L122.405437,144.738005 L119.875033,148.128 L117.327308,150.675888 L113.344138,146.733082 C113.344138,146.733082 110.878566,143.766247 113.344138,141.118952 C115.809957,138.47612 119.219791,140.851223 119.219791,140.851223" id="Fill-206" fill="#B16677"></path>
                    <path d="M142.881265,166.922083 C142.881265,166.922083 143.691658,171.240702 140.458502,172.752131 L134.531379,170.972973 C134.531379,170.972973 132.43203,169.621189 133.182045,166.59833 C133.940721,163.575222 137.708365,164.603252 137.708365,164.603252 L142.881265,166.922083" id="Fill-207" fill="#B16677"></path>
                    <path d="M119.633524,87.6727969 C119.611996,94.1248192 119.594675,99.9333001 119.577601,104.411564 L119.551619,104.411564 L119.534297,104.407102 C109.525025,101.703782 106.835017,94.9064392 108.236068,89.9445275 C109.619797,85.0428548 119.379147,87.6080957 119.633524,87.6727969" id="Fill-208" fill="#E3909D"></path>
                    <path d="M119.482581,113.726552 C120.581992,116.071412 121.944194,119.241275 121.814778,120.282195 C121.655174,121.551677 121.207046,124.108242 119.219791,126.103567 C118.508378,126.816024 117.594552,127.459565 116.42635,127.947427 C114.124589,128.901831 111.473431,126.28478 109.305044,123.235891 C107.313582,120.433165 105.735853,117.267765 105.218687,116.179496 C104.140803,113.912227 105.649741,111.753042 107.891126,107.434424 C110.081041,103.215212 119.111904,104.355292 119.534297,104.407102 L119.551619,104.411564 L119.577601,104.411564 C119.560279,110.133529 119.551619,113.696309 119.551619,113.696309 L119.482581,113.726552 Z M113.033838,124.49273 C113.033838,124.49273 114.378718,120.446055 117.935041,117.963116 C117.935041,117.963116 114.271078,111.55869 110.231984,114.832174 C106.188436,118.105657 113.033838,124.49273 113.033838,124.49273 L113.033838,124.49273 Z" id="Fill-209" fill="#E3909D"></path>
                    <path d="M119.219791,137.020715 C119.780261,137.569064 120.754463,138.445876 122.46136,139.823441 C125.164235,142.004194 126.664265,143.662626 126.302248,146.404866 C126.23321,146.93611 126.095382,147.506026 125.879854,148.128 C125.616817,148.905158 125.233273,149.764618 124.72452,150.727698 C124.496125,151.159536 124.254616,151.543776 123.996033,151.880669 C120.862103,156.026503 115.887656,153.534639 115.887656,153.534639 C115.887656,153.534639 115.598637,153.223776 115.094337,152.675427 C113.538137,150.96097 109.891495,146.940324 106.61949,143.170302 C102.308946,138.203928 104.787633,131.402371 104.860877,129.027019 C104.938328,126.651916 109.305044,123.235891 109.305044,123.235891 C111.473431,126.28478 114.124589,128.901831 116.42635,127.947427 C117.594552,127.459565 118.508378,126.816024 119.219791,126.103567 L119.219791,137.020715 Z M122.405437,144.738005 L119.219791,140.851223 C119.219791,140.851223 115.809957,138.47612 113.344138,141.118952 C110.878566,143.766247 113.344138,146.733082 113.344138,146.733082 L117.327308,150.675888 L119.875033,148.128 L122.405437,144.738005 L122.405437,144.738005 Z" id="Fill-210" fill="#E3909D"></path>
                    <path d="M140.458502,172.752131 C143.691658,171.240702 142.881265,166.922083 142.881265,166.922083 L137.708365,164.603252 C137.708365,164.603252 133.940721,163.575222 133.182045,166.59833 C132.43203,169.621189 134.531379,170.972973 134.531379,170.972973 L140.458502,172.752131 Z M128.526558,171.668324 L128.522352,171.663862 C124.737387,170.627404 120.909613,169.40527 119.219791,168.325678 C115.327186,165.842491 112.223446,162.49563 112.762387,158.393178 C113.284008,154.420128 114.986698,152.774586 115.094337,152.675427 C115.598637,153.223776 115.887656,153.534639 115.887656,153.534639 C115.887656,153.534639 120.862103,156.026503 123.996033,151.880669 L128.819537,152.670965 C126.987679,149.108186 125.879854,148.128 125.879854,148.128 C126.095382,147.506026 126.23321,146.93611 126.302248,146.404866 L126.358171,146.40908 L176.090769,146.40908 C178.599645,139.529683 183.673319,133.237555 183.673319,133.237555 C183.673319,133.237555 183.160359,126.479131 183.832923,120.33822 L183.832923,120.334006 C183.849997,120.174112 183.867318,120.010004 183.888846,119.850358 C184.643315,113.588473 188.522805,111.753042 188.522805,111.753042 C186.501155,110.833095 184.957822,109.101533 183.832923,106.924747 C181.005087,101.44473 180.836822,93.1488476 182.380156,87.8931776 C182.815417,86.4162057 183.345698,85.3839614 183.923241,84.6801811 C186.212383,81.8816688 189.169387,84.2223148 189.169387,84.2223148 C189.169387,84.2223148 187.229642,85.4099907 187.121755,87.7850944 C187.014115,90.160446 190.247023,94.4788165 190.626361,94.8028182 C191.001492,95.126572 193.725895,96.2840044 195.083889,94.1119285 C198.40291,98.0934065 201.385896,99.3502457 204.149148,101.49654 C208.45994,104.843401 206.19678,111.321205 206.19678,111.321205 C206.19678,111.321205 205.226784,145.545406 204.580202,154.182643 C203.93362,162.819631 205.873365,175.883074 207.058889,181.38912 C208.244412,186.895414 229.797877,225.654152 229.797877,225.654152 L175.698564,225.654152 C175.698564,225.654152 166.538286,210.53936 165.46065,210.107523 C164.383014,209.675686 158.779058,203.629719 152.576031,196.611996 C146.372757,189.59452 139.165338,183.224551 135.609016,180.849448 C132.108616,178.513016 128.634198,171.875567 128.526558,171.668324 L128.526558,171.668324 Z" id="Fill-211" fill="#EA929D"></path>
                    <path d="M119.136896,112.766198 C118.619977,111.693794 118.240392,110.951838 118.240144,110.951342 C118.214657,110.901763 118.15428,110.882427 118.10479,110.907712 C118.055548,110.932998 118.036,110.993733 118.061239,111.043064 C118.061487,111.04356 118.155764,111.227995 118.315121,111.546791 C118.47423,111.865835 118.697923,112.318496 118.956011,112.853706 C118.980014,112.903781 119.040144,112.924852 119.090128,112.900558 C119.140113,112.876512 119.161146,112.816273 119.136896,112.766198" id="Fill-212" fill="#B16677"></path>
                    <path d="M109.590846,123.800601 C110.483886,125.003895 111.447696,126.111004 112.434024,126.920884 C113.420104,127.730021 114.430929,128.246639 115.423196,128.24763 C115.775562,128.24763 116.124464,128.18169 116.464705,128.040388 C117.396099,127.651437 118.168879,127.164071 118.807048,126.620929 C118.849361,126.584983 118.854558,126.521522 118.818678,126.479131 C118.782798,126.436741 118.719451,126.431535 118.677137,126.467728 C118.054558,126.997237 117.300337,127.473447 116.387748,127.854465 C116.072005,127.985355 115.75057,128.046338 115.423196,128.046338 C114.503432,128.047329 113.528239,127.559963 112.56146,126.765205 C111.59468,125.971686 110.638788,124.875484 109.752182,123.680371 C109.719024,123.635997 109.656172,123.626577 109.611632,123.659796 C109.567091,123.693014 109.557935,123.75598 109.590846,123.800601" id="Fill-213" fill="#B16677"></path>
                    <path d="M123.621149,152.184343 C122.270578,153.740642 120.644102,154.175454 119.225977,154.176445 C118.311409,154.176693 117.485923,153.993249 116.890315,153.809805 C116.592388,153.718083 116.352116,153.626361 116.186573,153.557694 C116.103925,153.523484 116.039836,153.494976 115.99678,153.475144 C115.953724,153.455312 115.932691,153.444653 115.932444,153.444653 L115.887656,153.534639 L115.961148,153.46622 C115.960653,153.465724 115.824062,153.318473 115.573397,153.047025 C115.535785,153.00637 115.472191,153.003643 115.431609,153.041572 C115.39078,153.079252 115.388306,153.142962 115.425918,153.183617 C115.676583,153.455312 115.813916,153.603307 115.813916,153.603307 L115.84262,153.624874 C115.850291,153.628097 117.343145,154.376994 119.225977,154.377988 C120.683446,154.379225 122.381187,153.922598 123.772834,152.316224 C123.809209,152.27433 123.804755,152.21062 123.762937,152.174179 C123.721118,152.137738 123.657524,152.1422 123.621149,152.184343" id="Fill-214" fill="#B16677"></path>
                    <path d="M128.500081,171.765252 C133.426277,173.109351 138.281207,174.146058 138.282197,174.146058 L138.284424,174.146553 C138.289125,174.147545 138.577897,174.20233 139.030727,174.20233 C139.709229,174.20233 140.758409,174.079373 141.765522,173.458639 C142.773131,172.838647 143.730754,171.717904 144.220207,169.753566 C144.377089,169.124651 144.446623,168.552504 144.446623,168.032415 C144.447859,166.12435 143.505824,164.928989 142.570471,164.225705 C141.63487,163.520437 140.705702,163.294107 140.697784,163.291876 L140.674029,163.389547 L140.721787,163.301048 L126.453191,155.605325 C126.404444,155.579048 126.343572,155.597392 126.317095,155.646228 C126.290865,155.695312 126.309177,155.756295 126.358171,155.782572 L140.626519,163.478295 L140.650274,163.487467 C140.650274,163.487467 140.662646,163.490441 140.688381,163.49763 C140.882133,163.551176 141.778142,163.82783 142.618228,164.519215 C143.458562,165.212088 144.244457,166.308538 144.245694,168.032415 C144.245694,168.534407 144.178635,169.089945 144.025218,169.70473 C143.544426,171.627174 142.62293,172.692636 141.660357,173.287342 C140.697289,173.881056 139.685722,174.001286 139.030727,174.001038 C138.812478,174.001038 138.634068,173.987899 138.510838,173.974513 C138.449224,173.968067 138.401466,173.961374 138.369298,173.956664 C138.33713,173.951706 138.322036,173.948731 138.322036,173.948731 L138.30323,174.047642 L138.324263,173.949227 C138.323273,173.949227 138.021139,173.884526 137.489621,173.766527 C135.894571,173.412282 132.242485,172.577612 128.552788,171.571149 C128.499339,171.556523 128.444158,171.588254 128.429559,171.641799 C128.414959,171.695345 128.446633,171.750626 128.500081,171.765252" id="Fill-215" fill="#B16677"></path>
                    <path d="M175.749538,147.076915 C175.119536,148.946061 174.697637,150.847185 174.628104,152.667247 C174.626124,152.722776 174.66918,152.76938 174.724856,152.771611 C174.780285,152.773843 174.826805,152.73046 174.829032,152.674932 C174.897327,150.880651 175.314277,148.997128 175.939826,147.141369 C175.957642,147.088814 175.929433,147.03155 175.876974,147.013949 C175.824268,146.996101 175.767355,147.024361 175.749538,147.076915" id="Fill-216" fill="#B16677"></path>
                    <path d="M130.167386,155.51162 L130.203266,155.454108 L130.164664,155.509885 L130.167386,155.51162 L130.203266,155.454108 L130.164664,155.509885 L130.167386,155.512116 C130.207473,155.542359 130.631351,155.969982 130.797141,158.124457 C130.801595,158.179986 130.849848,158.221385 130.905276,158.217171 C130.960457,158.212709 131.001781,158.164369 130.997574,158.10884 C130.904286,156.910504 130.73429,156.229035 130.583099,155.840828 C130.432156,155.453364 130.298039,155.356188 130.273789,155.340819 C130.226526,155.311319 130.164664,155.325945 130.135218,155.373045 C130.106019,155.420146 130.120371,155.482368 130.167634,155.51162" id="Fill-217" fill="#B16677"></path>
                    <path d="M188.516619,111.85344 C188.518104,111.85344 188.944457,111.880709 189.63261,111.880709 C190.664468,111.880461 192.284757,111.819726 193.945134,111.514565 C195.605262,111.208659 197.306715,110.660807 198.501641,109.671201 C198.544203,109.635751 198.550141,109.57229 198.514756,109.529651 C198.479619,109.486765 198.416272,109.480816 198.373463,109.516265 C197.224315,110.469926 195.551319,111.015052 193.908759,111.316495 C192.266694,111.618682 190.656549,111.679416 189.63261,111.679416 C189.291131,111.679416 189.014979,111.672723 188.824197,111.665782 C188.633414,111.659089 188.529486,111.652643 188.529239,111.652643 C188.47381,111.648925 188.426053,111.691068 188.422589,111.746597 C188.419124,111.802126 188.461191,111.84997 188.516619,111.85344" id="Fill-218" fill="#B16677"></path>
                    <path d="M127.909918,160.917268 C127.909918,160.917516 127.898535,160.992133 127.873543,161.12922 C127.785946,161.608901 127.531817,162.839463 127.03024,164.157285 C126.529405,165.475355 125.778153,166.878701 124.714622,167.70643 C124.670823,167.74064 124.662905,167.803854 124.697053,167.847732 C124.730953,167.89161 124.794052,167.899542 124.837851,167.865332 C126.109239,166.872256 126.919383,165.143668 127.420713,163.664217 C127.920806,162.184519 128.107876,160.95123 128.108619,160.947511 C128.116784,160.892478 128.079172,160.841163 128.024239,160.832735 C127.969553,160.824554 127.918331,160.862235 127.909918,160.917268" id="Fill-219" fill="#B16677"></path>
                    <path d="M124.749264,160.995108 C124.578773,161.043448 124.375123,161.164421 124.148213,161.340924 C123.471443,161.871672 122.603148,162.910858 122.30819,164.038047 C122.294085,164.09184 122.326253,164.146626 122.37995,164.160756 C122.433646,164.174638 122.488579,164.142411 122.502684,164.088618 C122.686043,163.380623 123.123036,162.68899 123.587248,162.158242 C123.81886,161.892744 124.0574,161.667405 124.27169,161.499826 C124.485237,161.332 124.678494,161.222925 124.803208,161.189211 C124.856409,161.174337 124.887835,161.118808 124.872988,161.065262 C124.858141,161.011717 124.802961,160.980234 124.749264,160.995108" id="Fill-220" fill="#B16677"></path>
                    <path d="M125.608156,162.284173 L124.155637,164.711088 C124.126933,164.758932 124.142522,164.820658 124.190032,164.849166 C124.237542,164.877922 124.299404,164.862305 124.32786,164.814709 L125.780628,162.387547 C125.809084,162.33995 125.793742,162.278224 125.745985,162.249468 C125.698475,162.22096 125.63686,162.236329 125.608156,162.284173" id="Fill-221" fill="#B16677"></path>
                    <path d="M105.703933,138.180626 C105.710366,138.175916 107.983919,136.715553 109.507456,134.209808 C109.53616,134.162459 109.521066,134.100485 109.473803,134.071481 C109.426293,134.042725 109.364679,134.057599 109.335727,134.105195 C108.588434,135.335261 107.652091,136.313216 106.902818,136.982786 C106.528429,137.317696 106.200561,137.575261 105.96697,137.749037 C105.850174,137.835801 105.756886,137.901742 105.693045,137.945619 C105.628956,137.989745 105.595303,138.011312 105.595303,138.011312 C105.548783,138.041308 105.535173,138.10353 105.565114,138.150383 C105.595055,138.197235 105.657165,138.210622 105.703933,138.180626" id="Fill-222" fill="#B16677"></path>
                    <path d="M107.522923,132.705815 C107.432357,132.715731 107.343771,132.755146 107.249988,132.812411 C106.925831,133.013455 106.525213,133.456696 106.141173,133.960671 C105.758866,134.464646 105.400314,135.026381 105.184787,135.459954 C105.160042,135.509781 105.180085,135.570268 105.229822,135.595058 C105.279559,135.619847 105.339937,135.59952 105.364681,135.549692 C105.600994,135.073482 106.030069,134.415314 106.463103,133.875146 C106.679373,133.60469 106.897127,133.363486 107.090136,133.189215 C107.186394,133.102203 107.276712,133.032048 107.355401,132.983708 C107.433594,132.93512 107.500653,132.909834 107.543956,132.905868 C107.599137,132.900166 107.639224,132.850587 107.633285,132.795306 C107.627593,132.740025 107.578104,132.699865 107.522923,132.705815" id="Fill-223" fill="#B16677"></path>
                    <path d="M149.01179,146.344379 C149.008821,146.348593 145.034311,151.071284 142.879038,156.246883 C142.85751,156.298198 142.88176,156.357198 142.932982,156.378517 C142.984204,156.399836 143.043096,156.37579 143.064377,156.324475 C144.133352,153.756259 145.659364,151.291913 146.917885,149.471107 C147.546898,148.560581 148.1091,147.810939 148.514172,147.289115 C148.716337,147.02808 148.879405,146.82406 148.991747,146.685486 C149.104088,146.546911 149.165208,146.474277 149.165455,146.474029 C149.201088,146.431639 149.195644,146.367929 149.15333,146.332232 C149.110769,146.296287 149.047423,146.301741 149.01179,146.344379" id="Fill-224" fill="#B16677"></path>
                    <path d="M163.618894,146.417757 C163.619389,146.421227 164.296159,154.427565 166.601385,162.363996 C166.616727,162.417294 166.67265,162.448033 166.725851,162.432664 C166.779053,162.417046 166.809736,162.361269 166.794395,162.307724 C165.644999,158.351779 164.900922,154.373771 164.444628,151.385618 C164.216234,149.891541 164.059847,148.644866 163.96062,147.772019 C163.910883,147.335472 163.875498,146.992382 163.852733,146.758615 C163.82972,146.524848 163.819327,146.401147 163.819327,146.400652 C163.814378,146.345371 163.765878,146.30422 163.710697,146.30893 C163.655269,146.31364 163.614193,146.362228 163.619142,146.417757 L163.618894,146.417757" id="Fill-225" fill="#B16677"></path>
                    <path d="M156.734643,146.477004 L156.789081,146.427425 L156.715342,146.44329 L156.734643,146.477004 L156.789081,146.427425 L156.715342,146.44329 C156.715342,146.443538 156.717569,146.455437 156.717569,146.482458 C156.718311,146.604919 156.67476,147.014445 156.380792,148.17981 C156.087319,149.346415 155.544665,151.273568 154.549182,154.450372 C153.613333,157.432328 153.090476,159.283625 152.801209,160.434612 C152.51219,161.58659 152.456019,162.033797 152.455277,162.226165 C152.455524,162.285413 152.459978,162.321606 152.471113,162.35408 L152.498828,162.401677 L152.554008,162.434151 C152.6082,162.44605 152.661896,162.412088 152.674021,162.357799 C152.686146,162.303509 152.65175,162.249716 152.597807,162.237569 L152.577269,162.329291 L152.646802,162.265581 L152.597807,162.237569 L152.577269,162.329291 L152.646802,162.265581 L152.595085,162.312929 L152.659421,162.284421 L152.646802,162.265581 L152.595085,162.312929 L152.659421,162.284421 L152.642595,162.291858 L152.660659,162.287148 L152.659421,162.284421 L152.642595,162.291858 L152.660659,162.287148 C152.659669,162.284421 152.656205,162.265085 152.656205,162.226165 C152.655462,162.072221 152.708169,161.627493 152.996198,160.483695 C153.283733,159.338658 153.805601,157.490336 154.740954,154.510611 C155.736932,151.331576 156.280576,149.401696 156.575781,148.229142 C156.870739,147.055596 156.917754,146.643839 156.918497,146.482458 C156.918497,146.445769 156.916022,146.421475 156.911816,146.400652 L156.883359,146.341404 C156.845994,146.300253 156.7824,146.297278 156.741324,146.334711 C156.700248,146.372143 156.697278,146.435853 156.73489,146.477004" id="Fill-226" fill="#B16677"></path>
                    <path d="M175.197729,190.065772 C175.197729,190.065772 175.185604,190.089075 175.15987,190.134688 C174.968098,190.478026 174.043384,192.04672 172.361233,193.610208 C170.678586,195.174191 168.241718,196.731482 165.019202,197.066143 C164.964022,197.071845 164.923935,197.121425 164.929626,197.176706 C164.935318,197.231987 164.984807,197.272146 165.039988,197.266444 C168.535934,196.903275 171.120528,195.125108 172.828415,193.44139 C174.536796,191.756928 175.37218,190.165427 175.375644,190.159478 C175.401379,190.110394 175.382573,190.049411 175.333331,190.02363 C175.284336,189.997601 175.223464,190.016689 175.197729,190.065772" id="Fill-227" fill="#B16677"></path>
                    <path d="M181.49058,186.4668 C181.496271,186.468287 186.128498,187.778672 192.045228,187.77892 C195.743091,187.778672 199.943274,187.267012 203.829445,185.598664 C203.880419,185.576849 203.904174,185.517601 203.882399,185.466534 C203.860376,185.415468 203.801236,185.391917 203.750261,185.413732 C199.899228,187.067455 195.72478,187.577628 192.045228,187.577628 C189.101586,187.577628 186.475173,187.251147 184.585412,186.924914 C183.640656,186.761798 182.879753,186.598681 182.355658,186.47622 C182.093611,186.415237 181.890703,186.36417 181.75337,186.328721 C181.616036,186.293024 181.545513,186.273192 181.545266,186.272944 C181.491817,186.25807 181.436389,186.289058 181.421294,186.342603 C181.4062,186.396149 181.437379,186.451678 181.490827,186.4668 L181.49058,186.4668" id="Fill-228" fill="#B16677"></path>
                    <path d="M162.554125,60.1757839 C161.708843,60.0939778 161.186233,59.9871341 161.186233,59.9871341 C159.332352,57.5446023 157.298824,55.4763954 157.298824,55.4763954 C158.273522,54.5928895 159.090843,53.5571747 159.573861,52.4627083 C161.026134,49.1788131 161.776149,44.5837894 161.776149,43.4102437 C161.776149,42.2396728 162.975529,31.5917414 154.180979,30.2803648 C154.180979,30.2803648 149.462145,29.6219497 147.21507,31.1247029 C144.967995,32.6244814 142.20697,45.098672 141.926116,46.7868524 C141.645263,48.4752807 141.645263,50.3521109 143.097288,52.3697468 C143.296731,52.6456565 143.535518,52.9495785 143.805236,53.2673828 L143.330384,54.9473826 C143.330384,54.9473826 142.20697,55.043071 141.412167,55.7914728 C140.614394,56.5428494 139.209879,60.3416272 137.103354,62.2184574 C134.996829,64.0925608 133.968683,64.1404049 132.143011,64.6104182 C132.143011,64.6104182 132.168251,64.5737294 132.213039,64.5005997 C132.533484,63.9941456 133.842237,61.7092764 134.904036,56.9650185 C136.120243,51.5256566 135.465743,49.3196188 136.68195,43.2696859 C137.901127,37.2195052 141.926116,28.9184172 146.04662,24.6977183 C150.164403,20.4767715 154.518003,23.2455361 154.518003,23.2455361 C154.518003,23.2455361 160.804173,21.6614726 163.084901,26.3747433 C165.368599,31.0880141 167.405096,37.9483232 167.157896,44.1727757 C166.913417,50.3999551 164.104635,57.8569529 162.559817,60.108108 L162.554125,60.1757839" id="Fill-229" fill="#171B33"></path>
                    <path d="M159.961612,99.1514321 C159.961612,99.1514321 160.312741,95.6340177 160.556972,90.039968 C160.652487,87.8929297 160.304328,85.6276445 159.840858,83.652399 C160.318432,85.6445015 162.874323,96.458524 163.191799,100.347289 L159.961612,99.1514321" id="Fill-230" fill="#EEAD39"></path>
                    <path d="M177.025133,107.874689 C178.078519,108.611936 178.21907,109.10426 178.21907,109.10426 C178.21907,109.10426 177.72739,110.229961 175.022536,112.376999 C173.359685,113.699531 171.708217,114.15244 170.685762,114.304401 C170.045367,114.400089 169.652172,114.380505 169.652172,114.380505 L168.135315,106.34665 C170.621178,106.625287 176.210782,107.300559 177.025133,107.874689" id="Fill-231" fill="#EEAD39"></path>
                    <path d="M164.17491,81.0831917 C164.17491,81.0831917 166.315335,85.0450859 166.385363,90.4281751 C166.427429,93.5715124 166.610046,98.4283158 166.75901,101.925898 C166.75901,101.925898 163.612955,102.457886 163.472652,102.457886 C163.332102,102.457886 163.191799,100.347289 163.191799,100.347289 C162.874323,96.458524 160.318432,85.6445015 159.840858,83.652399 C159.7931,83.4468922 159.764891,83.3343468 159.764891,83.3343468 C159.026259,80.3176849 158.048839,78.046946 158.048839,78.046946 L158.048839,78.0442191 C158.787472,78.2410495 159.24822,78.3030238 159.24822,78.3030238 C159.24822,78.3030238 162.489541,80.9649447 163.646856,81.0717884 C163.834916,81.0888933 164.00912,81.0859186 164.172188,81.0663347 L164.17491,81.0831917" id="Fill-232" fill="#EEAD39"></path>
                    <path d="M178.401686,105.522144 C178.660022,108.11391 178.21907,109.10426 178.21907,109.10426 C178.21907,109.10426 178.078519,108.611936 177.025133,107.874689 C176.210782,107.300559 170.621178,106.625287 168.135315,106.34665 C167.407818,106.267819 166.94707,106.219975 166.94707,106.219975 C166.94707,106.219975 166.862938,104.419001 166.75901,101.925898 C166.610046,98.4283158 166.427429,93.5715124 166.385363,90.4281751 C166.315335,85.0450859 164.17491,81.0831917 164.17491,81.0831917 L164.172188,81.0663347 C165.02044,80.9733732 165.537111,80.4780745 165.683106,80.3318151 C165.860031,80.1572954 167.438749,78.3030238 167.438749,78.3030238 C167.438749,78.3030238 170.775586,80.6835813 173.724919,86.4885917 C175.028227,89.0523452 175.814617,91.6438633 176.376324,94.1342393 C177.081304,97.2830304 177.424019,100.271432 177.971869,102.843366 C178.19383,103.88156 178.32572,104.768041 178.401686,105.519417 L178.401686,105.522144" id="Fill-233" fill="#EEAD39"></path>
                    <path d="M167.438749,78.3030238 C167.438749,78.3030238 165.860031,80.1572954 165.683106,80.3318151 C165.537111,80.4780745 165.02044,80.9733732 164.172188,81.0663347 C164.00912,81.0859186 163.834916,81.0888933 163.646856,81.0717884 C162.489541,80.9649447 159.24822,78.3030238 159.24822,78.3030238 C159.24822,78.3030238 160.276119,76.7554012 160.464427,74.5999344 C160.464427,74.5999344 162.419266,75.2667781 163.612955,75.5144275 C164.806892,75.7591021 167.438749,78.3030238 167.438749,78.3030238" id="Fill-234" fill="#EEAD39"></path>
                    <path d="M167.896528,74.5999344 C168.247657,76.3922317 167.438749,78.3030238 167.438749,78.3030238 C167.438749,78.3030238 164.806892,75.7591021 163.612955,75.5144275 C162.419266,75.2667781 160.464427,74.5999344 160.464427,74.5999344 L160.458735,74.5915059 C160.340703,74.335428 157.554438,68.3640786 157.23424,66.3437159 C157.020693,65.0016001 156.781905,62.5027956 156.607949,60.4851597 C156.512434,59.4018486 156.436468,58.4563685 156.39168,57.9020702 C156.262512,56.3150318 156.262512,56.3150318 156.262512,56.3150318 C156.621806,56.0559792 156.967491,55.7746158 157.298824,55.4763954 C157.298824,55.4763954 159.332352,57.5446023 161.186233,59.9871341 C161.997862,61.0592898 162.776086,62.2016004 163.332102,63.2737561 C165.158021,66.7911704 167.545399,72.8046624 167.896528,74.5999344" id="Fill-235" fill="#EEAD39"></path>
                    <path d="M160.458735,74.5915059 L160.464427,74.5999344 C160.276119,76.7554012 159.24822,78.3030238 159.24822,78.3030238 C159.24822,78.3030238 158.787472,78.2410495 158.048839,78.0442191 C156.970213,77.7626078 155.301671,77.2028558 153.58265,76.1475571 C150.681322,74.3634404 143.751788,69.4392091 140.288505,66.39156 C136.822501,63.3441589 137.103354,62.2184574 137.103354,62.2184574 C139.209879,60.3416272 140.614394,56.5428494 141.412167,55.7914728 C142.20697,55.043071 143.330384,54.9473826 143.330384,54.9473826 C143.330384,54.9473826 146.327474,56.9171743 148.667342,60.8565098 C149.122399,61.6220166 149.844205,62.6069124 150.712253,63.698652 C154.251254,68.1446895 160.228361,74.3522851 160.458735,74.5915059" id="Fill-236" fill="#EEAD39"></path>
                    <path d="M180.836822,88.2818805 L175.092811,72.489585 C175.092811,72.489585 172.601257,64.3290548 171.371193,62.4296659 C170.143604,60.530277 165.438874,60.2826276 163.857434,60.2489136 C163.371446,60.2375103 162.930494,60.2094979 162.554125,60.175536 C161.708595,60.0939778 161.186233,59.9871341 161.186233,59.9871341 C161.99811,61.0592898 162.776086,62.2016004 163.332102,63.2737561 C165.158021,66.7911704 167.545399,72.8046624 167.896528,74.5999344 C168.247657,76.3922317 167.438749,78.3030238 167.438749,78.3030238 C167.438749,78.3030238 170.775586,80.6835813 173.724919,86.4885917 C175.028227,89.0523452 175.814617,91.6438633 176.376324,94.1342393 C178.825317,93.348157 180.144463,92.2487326 180.836822,91.4207557 L180.836822,88.2818805" id="Fill-237" fill="#DB1B63"></path>
                    <path d="M136.462959,98.3296526 C136.240998,98.5126008 136.010624,98.5408611 136.010624,98.5408611 C136.069764,97.4404451 136.097725,97.0410826 136.097725,97.0410826 C135.558536,95.9153811 133.477251,95.4537964 133.457455,95.408927 L133.454733,95.408927 C132.862095,94.122836 132.08684,92.6766033 131.345239,90.1693703 C130.081274,85.9005793 129.168439,75.1148171 129.193678,73.3336752 C129.216196,71.5495585 129.567325,69.4870532 129.988481,68.0574297 C130.230238,67.238625 130.179511,66.3605729 130.036239,65.4854955 C131.595161,64.9958984 132.213039,64.5005997 132.213039,64.5005997 C132.168251,64.5737294 132.143011,64.6104182 132.143011,64.6104182 C133.968683,64.1404049 134.996829,64.0925608 137.103354,62.2184574 C137.103354,62.2184574 136.822501,63.3441589 140.288505,66.39156 C143.751788,69.4392091 150.681322,74.3634404 153.58265,76.1475571 C155.301671,77.2028558 156.970213,77.7626078 158.048839,78.0442191 L158.048839,78.046946 C158.048839,78.046946 159.026259,80.3176849 159.764891,83.3343468 C159.764891,83.3343468 159.7931,83.4468922 159.840858,83.652399 C160.304328,85.6276445 160.652487,87.8929297 160.556972,90.039968 C160.312741,95.6340177 159.961612,99.1514321 159.961612,99.1514321 L163.191799,100.347289 C163.191799,100.347289 163.332102,102.457886 163.472652,102.457886 C163.612955,102.457886 166.75901,101.925898 166.75901,101.925898 C166.862938,104.419001 166.94707,106.219975 166.94707,106.219975 C166.94707,106.219975 167.407818,106.267819 168.135315,106.34665 L169.652172,114.380505 C169.652172,114.380505 170.045367,114.400089 170.685762,114.304401 L172.143478,130.948719 L132.679478,130.948719 C132.679478,130.948719 138.577897,113.713413 138.507622,107.804286 C138.437594,101.993574 136.524821,98.4478996 136.462959,98.3296526" id="Fill-238" fill="#D1165C"></path>
                    <path d="M180.836822,107.323613 L180.836822,91.4207557 C180.144463,92.2487326 178.825317,93.348157 176.376324,94.1342393 C177.081551,97.2830304 177.424019,100.271432 177.971869,102.843366 C178.19383,103.88156 178.32572,104.768041 178.401686,105.519417 L178.401686,105.522144 C178.94335,106.101728 179.801005,106.713042 180.836822,107.323613" id="Fill-239" fill="#E3909D"></path>
                    <path d="M153.394589,60.7749516 C151.661463,61.3827957 150.658804,63.6312239 150.714975,63.698652 L150.712253,63.698652 C149.844205,62.6069124 149.122399,61.6220166 148.667342,60.8565098 C146.327474,56.9171743 143.330384,54.9473826 143.330384,54.9473826 L143.805236,53.2673828 C145.518566,55.2765902 148.529761,57.9020702 150.914418,58.1834336 C152.445131,58.3663817 154.492764,57.5981481 156.262512,56.3150318 C156.262512,56.3150318 156.262512,56.3150318 156.39168,57.9020702 C156.436468,58.4563685 156.512434,59.4018486 156.607949,60.4851597 C156.607949,60.4851597 155.124746,60.1643806 153.394589,60.7749516" id="Fill-240" fill="#B16677"></path>
                    <path d="M157.23424,66.3437159 C157.554438,68.3640786 160.340703,74.335428 160.458735,74.5915059 C160.228361,74.3522851 154.251254,68.1446895 150.712253,63.698652 L150.714975,63.698652 C150.658804,63.6312239 151.661463,61.3827957 153.394589,60.7749516 C155.124746,60.1643806 156.607949,60.4851597 156.607949,60.4851597 C156.781905,62.5027956 157.020693,65.0016001 157.23424,66.3437159" id="Fill-241" fill="#E3909D"></path>
                    <path d="M133.454733,95.408927 L133.457455,95.408927 C133.477251,95.4537964 135.558536,95.9153811 136.097725,97.0410826 C136.097725,97.0410826 136.069764,97.4404451 136.010624,98.5408611 C135.979693,99.1457304 135.937627,99.9675099 135.887147,101.050821 C135.746597,104.098222 134.460114,108.389572 133.758104,109.959753 C133.055847,111.532661 128.957613,112.165791 127.157181,111.884427 C125.354027,111.603064 124.629252,110.452077 124.208095,108.834052 C123.786692,107.216274 122.241874,103.7943 121.750194,100.769458 C121.258763,97.7443672 121.444101,89.6544877 121.724955,84.212151 C122.005808,78.7727892 121.32879,75.5848303 121.022697,73.8007136 C120.719326,72.0195717 120.601293,71.6678055 120.601293,71.6678055 C118.098851,71.0121172 116.014597,66.8137291 114.913453,65.8513919 C113.815279,64.8917816 112.152428,63.4849646 111.520446,62.7561466 C110.888463,62.0300555 109.742532,61.3490817 110.397032,60.2489136 C111.051532,59.1457708 112.621589,61.4673287 112.621589,61.4673287 C112.621589,61.4673287 113.837796,62.6857438 114.306958,62.8967043 C114.77315,63.1076649 115.570922,62.7814321 115.570922,62.7814321 L112.621589,59.7084976 C112.621589,59.7084976 109.998146,56.7763687 109.717292,55.7213179 C109.436439,54.6660192 110.514817,54.0581751 111.217074,54.4550586 C111.919332,54.8544211 114.025857,58.2087191 114.025857,58.2087191 L116.94995,60.2712244 C116.94995,60.2712244 112.034395,53.7515262 111.4279,52.8370332 C110.818188,51.9222922 110.865946,51.2442932 111.683514,50.892527 C112.503557,50.5407607 113.955829,52.4148641 113.955829,52.4148641 C114.2592,51.8295786 115.264582,52.1335007 115.733743,52.3219026 C116.202905,52.5105524 121.702437,56.9650185 123.154709,58.464797 C124.604012,59.9675502 126.407413,60.9747568 126.407413,60.9747568 C126.407413,60.9747568 125.893217,57.8091087 126.617992,56.0505255 C127.342767,54.2916943 128.676759,53.5180069 129.800421,54.0103309 C130.923835,54.5026549 129.193678,56.75381 129.123403,58.3239913 C129.053128,59.8971474 129.334229,62.1004583 129.637352,63.5551195 C129.76652,64.1770937 129.926867,64.8298072 130.036239,65.4854955 C130.179511,66.3605729 130.230238,67.238625 129.988481,68.0574297 C129.567325,69.4870532 129.216196,71.5495585 129.193678,73.3336752 C129.168439,75.1148171 130.081274,85.9005793 131.345239,90.1693703 C132.08684,92.6766033 132.862095,94.122836 133.454733,95.408927" id="Fill-242" fill="#E3909D"></path>
                    <path d="M154.180979,30.2803648 C162.975529,31.5917414 161.776149,42.2396728 161.776149,43.4102437 C161.776149,44.5837894 161.026134,49.1788131 159.573861,52.4627083 C159.090843,53.5571747 158.273522,54.5928895 157.298824,55.4763954 C156.967491,55.7746158 156.621806,56.0559792 156.262512,56.3150318 C154.492764,57.5981481 152.445131,58.3663817 150.914418,58.1834336 C148.529761,57.9020702 145.518566,55.2765902 143.805236,53.2673828 C143.535518,52.9495785 143.296731,52.6456565 143.097288,52.3697468 C141.645263,50.3521109 141.645263,48.4752807 141.926116,46.7868524 C142.20697,45.098672 144.967995,32.6244814 147.21507,31.1247029 C149.462145,29.6219497 154.180979,30.2803648 154.180979,30.2803648" id="Fill-243" fill="#E3909D"></path>
                    <path d="M167.456318,79.077207 C167.057184,78.7150291 166.46034,78.1934532 165.856319,77.7398012 C165.250814,77.2861492 164.643576,76.8994295 164.199655,76.8069638 C163.62508,76.6879731 162.862693,76.4666009 162.24531,76.2752242 C161.936495,76.1795358 161.663807,76.0912844 161.468323,76.027079 C161.272839,75.9628736 161.155054,75.9227143 161.154807,75.9224664 L161.099626,75.9294075 L161.071169,75.9772517 C160.980603,77.0132143 160.68812,77.9046529 160.417907,78.5362952 C160.283047,78.8521163 160.153632,79.1029883 160.058365,79.2747811 C160.010607,79.3605536 159.97151,79.4264943 159.944291,79.4708679 C159.917072,79.5152415 159.902472,79.5373043 159.902472,79.5375522 L159.955179,79.5727536 L159.963592,79.5097877 C159.963345,79.5095398 159.880202,79.4983845 159.7253,79.4698763 C159.57015,79.4411202 159.344477,79.3950113 159.063376,79.3256001 C159.029228,79.3171716 158.994833,79.3379949 158.98642,79.3722048 C158.978007,79.4061667 158.99904,79.4406244 159.03294,79.4490529 C159.600833,79.5891149 159.945033,79.6354717 159.946766,79.6357196 C159.970768,79.6389422 159.994523,79.6282826 160.008133,79.6079551 C160.011102,79.6029971 161.013019,78.0952859 161.197615,75.9881591 L161.134269,75.9827054 L161.11373,76.0429444 C161.115215,76.0431923 163.009677,76.6897084 164.17392,76.9316561 C164.574291,77.0122228 165.182518,77.3915056 165.780105,77.841687 C166.379177,78.2913727 166.973794,78.8109653 167.370948,79.171408 C167.396931,79.1949582 167.437017,79.192975 167.460772,79.1669458 C167.48428,79.1409166 167.4823,79.1007572 167.456318,79.077207" id="Fill-244" fill="#C78C39"></path>
                    <path d="M167.618644,79.7995797 C167.401879,80.0534265 167.066093,80.4460957 166.768413,80.7911687 C166.471475,81.1352501 166.20918,81.4354537 166.149298,81.4942054 L166.148803,81.4947012 C166.010727,81.6330279 165.522264,82.10081 164.72177,82.1883177 L164.721028,82.1885656 C164.635658,82.1987294 164.546824,82.2041832 164.454031,82.2041832 C164.380292,82.2041832 164.304078,82.2007126 164.225142,82.1937715 C163.964826,82.170717 163.559754,81.9937184 163.111131,81.7386321 C162.437082,81.3563745 161.657126,80.8020762 161.046672,80.3437142 C160.741569,80.1146571 160.478531,79.909646 160.291956,79.7616514 C160.10538,79.6139046 159.99576,79.52367 159.995513,79.5234221 C159.968294,79.5013592 159.928454,79.5053256 159.906184,79.5323464 C159.883914,79.5596151 159.887873,79.5995266 159.915092,79.6218373 C159.915587,79.6223331 160.701977,80.2683534 161.629907,80.9277601 C162.093872,81.2577114 162.593222,81.5908853 163.048774,81.8491943 C163.505068,82.1072553 163.913357,82.291443 164.213759,82.3201991 C164.296407,82.327636 164.376333,82.3313545 164.454031,82.3313545 C164.551773,82.3313545 164.645803,82.3256528 164.736369,82.3147453 L164.728699,82.2515315 L164.735627,82.3147453 C165.57992,82.2222797 166.093622,81.7297078 166.238626,81.58444 L166.238131,81.5849358 C166.308159,81.5155245 166.565505,81.2202789 166.864422,80.8742143 C167.16235,80.5288934 167.498384,80.1362241 167.715149,79.8823773 C167.737914,79.8556044 167.734697,79.8154451 167.707973,79.7926385 C167.681496,79.769832 167.641409,79.7730546 167.618644,79.7995797" id="Fill-245" fill="#C78C39"></path>
                    <path d="M168.923685,106.863516 C170.19829,107.009032 172.074193,107.236354 173.724424,107.493671 C174.549663,107.62233 175.318237,107.758425 175.926216,107.895017 C176.532959,108.030369 176.984304,108.172166 177.152816,108.292892 C177.6586,108.647137 177.943165,108.940647 178.100295,109.143427 C178.121823,109.171192 178.161662,109.17615 178.189376,109.154583 C178.21709,109.133264 178.222039,109.093104 178.200511,109.06534 C178.034226,108.850909 177.74001,108.54897 177.225566,108.188775 C177.017957,108.044499 176.567849,107.910138 175.95393,107.771068 C174.117124,107.358319 170.8518,106.955486 168.938037,106.737336 C168.903147,106.73337 168.871721,106.758408 168.867762,106.793113 C168.863802,106.828067 168.888795,106.85955 168.923685,106.863516" id="Fill-246" fill="#C78C39"></path>
                    <path d="M164.675745,82.2981362 C164.675745,82.2983841 164.707418,82.3568879 164.763836,82.4714164 C165.159506,83.2726204 166.751834,86.7766483 166.810974,91.3282901 C166.85106,94.3169395 167.022047,98.90056 167.164577,102.27469 C167.166062,102.309891 167.195755,102.336912 167.230645,102.335483 C167.265783,102.333937 167.293002,102.304437 167.291518,102.269236 C167.14874,98.89585 166.978001,94.3122295 166.937914,91.3265548 C166.869371,86.0914602 164.789818,82.2428551 164.787344,82.2376493 C164.770517,82.20691 164.731915,82.1952589 164.701232,82.2121159 C164.670301,82.228725 164.658918,82.267397 164.675745,82.2981362" id="Fill-247" fill="#C78C39"></path>
                    <path d="M161.475747,89.1148153 C162.281932,92.6892461 163.299191,97.4630038 163.633741,100.17376 C163.638195,100.208466 163.669868,100.233256 163.704511,100.229042 C163.739401,100.224579 163.764146,100.192849 163.759692,100.158143 C163.42341,97.4362309 162.406151,92.6632169 161.599718,89.0868029 C161.5918,89.0525931 161.5579,89.0310261 161.523752,89.0387109 C161.489604,89.0463957 161.468076,89.0806055 161.475747,89.1148153" id="Fill-248" fill="#C78C39"></path>
                    <path d="M135.096798,96.637258 C135.402891,97.3412862 135.639947,98.0242432 135.769114,98.8608965 C136.116037,101.0828 136.133605,102.682233 136.133605,102.981693 C136.133605,103.015407 136.133358,103.032512 136.133358,103.032512 C136.132863,103.067713 136.161072,103.096469 136.19621,103.096967 C136.2311,103.097213 136.259804,103.069201 136.260299,103.033999 C136.260299,103.033751 136.260546,103.015903 136.260546,102.981693 C136.260546,102.677275 136.24273,101.071644 135.894571,98.8415605 C135.763423,97.9917687 135.521666,97.295921 135.213099,96.586439 C135.199242,96.5542124 135.161877,96.5395865 135.129709,96.5534687 C135.097541,96.5675988 135.082941,96.6050313 135.096798,96.637258" id="Fill-249" fill="#B16677"></path>
                    <path d="M137.435429,99.255301 C137.44211,99.2543095 137.676444,99.2258013 137.906323,99.0369035 L137.906818,99.0364078 C138.093394,98.8794888 138.272051,98.6092808 138.302487,98.1737253 C138.31288,98.0306885 138.316839,97.8420387 138.316839,97.6219059 C138.316839,96.7621982 138.254482,95.4213219 138.254482,94.5318665 C138.253987,94.1377098 138.268092,93.8273424 138.300508,93.7061207 C138.327232,93.6017559 138.342574,93.4210388 138.352719,93.1845448 C138.362865,92.9487945 138.366824,92.6602421 138.366824,92.3528495 C138.366824,91.2462361 138.316097,89.8934607 138.316097,89.8929649 C138.31486,89.8580114 138.285413,89.8304948 138.250276,89.831694 C138.215386,89.8332216 138.187919,89.8627214 138.189404,89.8976749 C138.189404,89.8986665 138.202023,90.2355589 138.214643,90.7115217 C138.227263,91.1874844 138.239883,91.8015259 138.239883,92.3528495 C138.239883,92.6592505 138.235924,92.9463155 138.226026,93.1790911 C138.216375,93.4111229 138.199549,93.5920879 138.177773,93.673894 C138.138677,93.8265987 138.128036,94.1322561 138.127542,94.5318665 C138.127542,95.4262798 138.189898,96.7671561 138.189898,97.6219059 C138.189898,97.8403034 138.185939,98.027218 138.175794,98.1645531 C138.146348,98.5696172 137.987238,98.8011532 137.82516,98.9389841 L137.865989,98.9878199 L137.825655,98.9384883 C137.725191,99.021286 137.6225,99.0693781 137.545296,99.0963989 C137.506694,99.1100332 137.474526,99.1182139 137.452256,99.1231718 L137.427264,99.1281297 L137.41984,99.1291213 C137.385197,99.1333356 137.360453,99.1650664 137.364659,99.2000199 C137.368866,99.2349735 137.400539,99.2597632 137.435429,99.255301" id="Fill-250" fill="#171B33"></path>
                    <path d="M116.002719,54.5214951 C116.003214,54.5219909 116.181872,54.6910568 116.467179,54.9684539 C117.322607,55.7999013 119.134916,57.6048413 119.918832,58.6970767 C120.446391,59.4286215 120.768815,59.9219371 120.959103,60.2315608 C121.05437,60.3864966 121.11648,60.4953235 121.154587,60.5652305 C121.17364,60.600184 121.186508,60.6254696 121.194921,60.6415829 L121.206056,60.6646373 C121.220903,60.6963682 121.258515,60.7102504 121.290436,60.6956245 C121.322109,60.6807507 121.335966,60.6430703 121.321367,60.6110915 C121.318645,60.6053899 121.079858,60.0897636 120.02177,58.6227075 C118.95997,57.1449919 116.091306,54.4310126 116.090068,54.4290294 C116.064581,54.4049834 116.024247,54.4062229 116.000245,54.4317563 C115.976242,54.4572897 115.977232,54.4974491 116.002719,54.5214951" id="Fill-251" fill="#B16677"></path>
                    <path d="M191.721071,0.39089526 C178.773106,0.39089526 168.276856,8.80031433 168.276856,19.1738235 C168.276856,25.6553455 172.374595,31.3698733 178.607563,34.7457383 C176.526525,41.2966716 170.000826,44.082789 170.000826,44.082789 C180.860825,42.5284731 185.620487,37.3129625 185.620487,37.3129625 L185.619745,37.3104835 C187.565676,37.7296778 189.609844,37.9567517 191.721071,37.9567517 C204.668788,37.9567517 215.165039,29.5473326 215.165039,19.1738235 C215.165039,8.80031433 204.668788,0.39089526 191.721071,0.39089526" id="Fill-252" fill="#1B47DB"></path>
                    <polyline id="Fill-253" fill="#FFFFFE" points="184.75343 18.5699457 184.75343 16.2649969 186.302949 16.2649969 186.302949 22.2373379 184.75343 22.2373379 184.75343 19.7898482 182.515757 19.7898482 182.515757 22.2373379 180.966238 22.2373379 180.966238 16.2649969 182.515757 16.2649969 182.515757 18.5699457 184.75343 18.5699457"></polyline>
                    <path d="M191.450115,20.4472717 L188.422094,20.4472717 C188.422094,21.0333009 188.730414,21.3501136 189.3233,21.3501136 C189.63162,21.3501136 189.853086,21.2472362 190.011205,20.9777719 L191.394687,20.9777719 C191.284078,21.4532389 190.999512,21.8015345 190.627845,22.0313353 C190.256179,22.2611361 189.797657,22.3719461 189.33097,22.3719461 C187.98708,22.3719461 186.982936,21.6113973 186.982936,20.2095383 C186.982936,18.8550276 187.907897,18.0391977 189.228527,18.0391977 C190.635764,18.0391977 191.450115,18.9105566 191.450115,20.2967981 L191.450115,20.4472717 Z M190.113896,19.6155764 C190.042631,19.2273693 189.687048,18.9740183 189.299545,18.9740183 C188.880368,18.9740183 188.532703,19.1956384 188.445601,19.6155764 L190.113896,19.6155764 L190.113896,19.6155764 Z" id="Fill-254" fill="#FFFFFE"></path>
                    <polygon id="Fill-255" fill="#FFFFFE" points="192.1061 22.2373379 193.54501 22.2373379 193.54501 15.6631023 192.1061 15.6631023"></polygon>
                    <polygon id="Fill-256" fill="#FFFFFE" points="194.493726 22.2373379 195.932636 22.2373379 195.932636 15.6631023 194.493726 15.6631023"></polygon>
                    <path d="M201.467059,20.2095383 C201.467059,21.5878471 200.32855,22.3719461 199.024004,22.3719461 C197.727377,22.3719461 196.58095,21.5957798 196.58095,20.2095383 C196.58095,18.8232967 197.719458,18.0391977 199.024004,18.0391977 C200.32855,18.0391977 201.467059,18.8232967 201.467059,20.2095383 Z M198.099044,20.2095383 C198.099044,20.7244209 198.439037,21.1203128 199.024004,21.1203128 C199.609219,21.1203128 199.949212,20.7244209 199.949212,20.2095383 C199.949212,19.710521 199.609219,19.290831 199.024004,19.290831 C198.439037,19.290831 198.099044,19.710521 198.099044,20.2095383 L198.099044,20.2095383 Z" id="Fill-257" fill="#FFFFFE"></path>
                    <path d="M204.084069,21.4691043 C204.084069,21.9760542 203.673058,22.3957443 203.158861,22.3957443 C202.644911,22.3957443 202.2339,21.9760542 202.2339,21.4691043 C202.2339,20.9542216 202.644911,20.5422164 203.158861,20.5422164 C203.673058,20.5422164 204.084069,20.9542216 204.084069,21.4691043 Z M202.415527,20.2095383 L203.909865,20.2095383 L203.909865,16.2649969 L202.415527,16.2649969 L202.415527,20.2095383 Z" id="Fill-258" fill="#FFFFFE"></path>
                </g>
            </g>
        </g>
    </g>
</svg>